<?xml version="1.0" encoding="utf-8"?>
<!-- Generator: Adobe Illustrator 21.0.2, SVG Export Plug-In . SVG Version: 6.00 Build 0)  -->
<svg version="1.1" id="Layer_1" xmlns="http://www.w3.org/2000/svg" xmlns:xlink="http://www.w3.org/1999/xlink" x="0px" y="0px"
	 viewBox="0 0 64 80" style="enable-background:new 0 0 64 80;" xml:space="preserve">
<style type="text/css">
	.st0{fill:#233139;}
</style>
<g>
	<path class="st0" d="M52.7,72.1v-4c0-0.9-0.6-1.6-1.3-1.9v-1.5H50v1.5c-0.8,0.3-1.3,1-1.3,1.9v4h-1.3v-4c0-0.9-0.6-1.6-1.3-1.9
		v-1.5h-1.3v1.5c-0.8,0.3-1.3,1-1.3,1.9v4H42v-4c0-0.9-0.6-1.6-1.3-1.9v-1.5h-1.3v1.5c-0.8,0.3-1.3,1-1.3,1.9v4h-1.3v-4
		c0-0.9-0.6-1.6-1.3-1.9v-1.5H34v1.5c-0.8,0.3-1.3,1-1.3,1.9v4h-1.3v-2v-2.7c0-0.4-0.3-0.7-0.7-0.7H26h-4.7h-4.7H12
		c-0.4,0-0.7,0.3-0.7,0.7v2.7v2c-0.4,0-0.7,0.3-0.7,0.7v2.7c0,0.4,0.3,0.7,0.7,0.7h2v0.7h1.3v-0.7h34.7v0.7h1.3v-0.7h2
		c0.4,0,0.7-0.3,0.7-0.7v-2.7C53.3,72.4,53,72.1,52.7,72.1z M50,68.1c0-0.4,0.3-0.7,0.7-0.7s0.7,0.3,0.7,0.7v4H50V68.1z M44.7,68.1
		c0-0.4,0.3-0.7,0.7-0.7s0.7,0.3,0.7,0.7v4h-1.3V68.1z M39.3,68.1c0-0.4,0.3-0.7,0.7-0.7s0.7,0.3,0.7,0.7v4h-1.3V68.1z M34,68.1
		c0-0.4,0.3-0.7,0.7-0.7s0.7,0.3,0.7,0.7v4H34V68.1z M22,72.1v-1.3h3.3v1.3H22z M17.3,72.1v-1.3h3.3v1.3H17.3z M26.7,70.8H30v1.3
		h-3.3V70.8z M30,69.4h-3.3v-1.3H30V69.4z M25.3,69.4H22v-1.3h3.3V69.4z M20.7,69.4h-3.3v-1.3h3.3V69.4z M12.7,68.1H16v1.3h-3.3
		V68.1z M12.7,70.8H16v1.3h-3.3V70.8z M52,74.8H12v-1.3h4.7h4.7H26h4.7h2.7H36h2.7h2.7H44h2.7h2.7H52V74.8z"/>
	<path class="st0" d="M52.7,59.4H52v-3.3c0-0.2-0.1-0.3-0.2-0.5l-0.5-0.5v-2.4c0-0.4-0.3-0.7-0.7-0.7H48c-0.4,0-0.7,0.3-0.7,0.7v2.4
		l-0.5,0.5c-0.1,0.1-0.2,0.3-0.2,0.5v3.3h-1.3v-3.3c0-0.2-0.1-0.3-0.2-0.5l-0.5-0.5v-2.4c0-0.4-0.3-0.7-0.7-0.7h-2.7
		c-0.4,0-0.7,0.3-0.7,0.7v2.4l-0.5,0.5c-0.1,0.1-0.2,0.3-0.2,0.5v3.3h-1.3v-3.3c0-0.2-0.1-0.3-0.2-0.5L38,55.1v-2.4
		c0-0.4-0.3-0.7-0.7-0.7h-2.7c-0.4,0-0.7,0.3-0.7,0.7v2.4l-0.5,0.5c-0.1,0.1-0.2,0.3-0.2,0.5v3.3H28v-2.7c0-0.7-0.6-1.3-1.3-1.3
		v-2.7h-1.3v2.7c-0.2,0-0.5,0.1-0.7,0.2c-0.2-0.1-0.4-0.2-0.7-0.2v-2.7h-1.3v2.7c-0.2,0-0.5,0.1-0.7,0.2c-0.2-0.1-0.4-0.2-0.7-0.2
		v-2.7H20v2.7c-0.2,0-0.5,0.1-0.7,0.2c-0.2-0.1-0.4-0.2-0.7-0.2v-2.7h-1.3v2.7c-0.7,0-1.3,0.6-1.3,1.3v2.7h-4.7
		c-0.4,0-0.7,0.3-0.7,0.7v2.7c0,0.4,0.3,0.7,0.7,0.7h41.3c0.4,0,0.7-0.3,0.7-0.7v-2.7C53.3,59.7,53,59.4,52.7,59.4z M48,56.4
		l0.5-0.5c0.1-0.1,0.2-0.3,0.2-0.5v-2H50v2c0,0.2,0.1,0.3,0.2,0.5l0.5,0.5v3.1H48V56.4z M41.3,56.4l0.5-0.5c0.1-0.1,0.2-0.3,0.2-0.5
		v-2h1.3v2c0,0.2,0.1,0.3,0.2,0.5l0.5,0.5v3.1h-2.7V56.4z M34.7,56.4l0.5-0.5c0.1-0.1,0.2-0.3,0.2-0.5v-2h1.3v2
		c0,0.2,0.1,0.3,0.2,0.5l0.5,0.5v3.1h-2.7V56.4z M26.7,56.8v2.7h-1.3v-2.7H26.7z M24,56.8v2.7h-1.3v-2.7H24z M21.3,56.8v2.7H20v-2.7
		H21.3z M17.3,56.8h1.3v2.7h-1.3V56.8z M52,62.1H12v-1.3h4.7h2.7H22h2.7h2.7H34h4h2.7h4h2.7h4H52V62.1z"/>
	<path class="st0" d="M52.7,46.8h-1.3v-6.7c0-0.4-0.3-0.7-0.7-0.7h-3.3H44h-3.3c-0.4,0-0.7,0.3-0.7,0.7v6.7h-4.7v-4.7
		c0-0.4-0.3-0.7-0.7-0.7h-4h-4h-4h-4h-4c-0.4,0-0.7,0.3-0.7,0.7v4.7h-2.7c-0.4,0-0.7,0.3-0.7,0.7v2.7c0,0.4,0.3,0.7,0.7,0.7h41.3
		c0.4,0,0.7-0.3,0.7-0.7v-2.7C53.3,47,53,46.8,52.7,46.8z M50,46.8h-2v-6h2V46.8z M46.7,46.8h-2v-6h2V46.8z M41.3,40.8h2v6h-2V40.8z
		 M34,46.8h-2.7v-4H34V46.8z M30,46.8h-2.7v-4H30V46.8z M26,46.8h-2.7v-4H26V46.8z M22,46.8h-2.7v-4H22V46.8z M15.3,42.8H18v4h-2.7
		V42.8z M52,49.4H12v-1.3h2.7h4h4h4h4h4h6H44h3.3h3.3H52V49.4z"/>
	<path class="st0" d="M52.7,34.1H11.3c-0.4,0-0.7,0.3-0.7,0.7v2.7c0,0.4,0.3,0.7,0.7,0.7h41.3c0.4,0,0.7-0.3,0.7-0.7v-2.7
		C53.3,34.4,53,34.1,52.7,34.1z M52,36.8H12v-1.3h40V36.8z"/>
</g>
<g>
	<path class="st0" d="M32.6,23.5v-3.3c0-0.3-0.3-0.6-0.6-0.6c-0.3,0-0.6,0.3-0.6,0.6v3.3c0,0.3,0.3,0.6,0.6,0.6
		C32.3,24.1,32.6,23.8,32.6,23.5z"/>
	<path class="st0" d="M28.8,19.1c0.2-0.2,0.2-0.6,0-0.9c-0.1-0.1-0.3-0.2-0.4-0.2c-0.2,0-0.3,0.1-0.4,0.2l-2.3,2.3
		c-0.2,0.2-0.2,0.6,0,0.9c0.2,0.2,0.6,0.2,0.9,0L28.8,19.1z"/>
	<path class="st0" d="M38.4,21.5c0.2-0.2,0.2-0.6,0-0.9l-2.3-2.3c-0.1-0.1-0.3-0.2-0.4-0.2c-0.2,0-0.3,0.1-0.4,0.2
		c-0.2,0.2-0.2,0.6,0,0.9l2.3,2.3C37.8,21.7,38.2,21.7,38.4,21.5z"/>
	<path class="st0" d="M36.5,15.1c0,0.3,0.3,0.6,0.6,0.6h3.3c0.3,0,0.6-0.3,0.6-0.6c0-0.3-0.3-0.6-0.6-0.6h-3.3
		C36.8,14.4,36.5,14.7,36.5,15.1z"/>
	<path class="st0" d="M23.6,15.7h3.3c0.3,0,0.6-0.3,0.6-0.6c0-0.3-0.3-0.6-0.6-0.6h-3.3c-0.3,0-0.6,0.3-0.6,0.6
		C22.9,15.4,23.2,15.7,23.6,15.7z"/>
	<path class="st0" d="M27.9,11.9c0.2,0.2,0.6,0.2,0.9,0c0.2-0.2,0.2-0.6,0-0.9l-2.3-2.3c-0.1-0.1-0.3-0.2-0.4-0.2
		c-0.2,0-0.3,0.1-0.4,0.2c-0.2,0.2-0.2,0.6,0,0.9L27.9,11.9z"/>
	<path class="st0" d="M32,19c2.2,0,3.9-1.8,3.9-3.9c0-2.2-1.8-3.9-3.9-3.9s-3.9,1.8-3.9,3.9S29.8,19,32,19z M32,12.4v5.4
		c-1.5,0-2.7-1.2-2.7-2.7C29.3,13.6,30.5,12.4,32,12.4z"/>
	<path class="st0" d="M32,10.5c0.3,0,0.6-0.3,0.6-0.6V6.6C32.6,6.3,32.3,6,32,6c-0.3,0-0.6,0.3-0.6,0.6v3.3
		C31.4,10.3,31.7,10.5,32,10.5z"/>
	<path class="st0" d="M36.1,11.9l2.3-2.3c0.2-0.2,0.2-0.6,0-0.9c-0.1-0.1-0.3-0.2-0.4-0.2c-0.2,0-0.3,0.1-0.4,0.2L35.2,11
		c-0.2,0.2-0.2,0.6,0,0.9C35.4,12.1,35.8,12.1,36.1,11.9z"/>
</g>
</svg>
