<?xml version="1.0" encoding="utf-8"?>
<!-- Generator: Adobe Illustrator 21.0.2, SVG Export Plug-In . SVG Version: 6.00 Build 0)  -->
<svg version="1.1" id="Layer_1" xmlns="http://www.w3.org/2000/svg" xmlns:xlink="http://www.w3.org/1999/xlink" x="0px" y="0px"
	 viewBox="0 0 100 125" style="enable-background:new 0 0 100 125;" xml:space="preserve">
<style type="text/css">
	.st0{fill:#233139;}
</style>
<title>Artboard 83</title>
<g>
	<path class="st0" d="M37.1,56.1c-1.7-4.6-6.7-6.9-11.3-5.2s-6.9,6.7-5.2,11.3s6.7,6.9,11.3,5.2c2.2-0.8,4-2.4,4.9-4.5
		C37.8,60.7,37.9,58.2,37.1,56.1z M35.2,62c-1.6,3.5-5.8,5.1-9.4,3.4s-5.1-5.8-3.4-9.4c1.6-3.5,5.8-5.1,9.4-3.4c1.7,0.8,3,2.2,3.7,4
		C36.1,58.4,36,60.3,35.2,62L35.2,62z"/>
	<path class="st0" d="M31.8,58.2h-2.6v-3.4c0-0.5-0.4-0.9-0.9-0.9s-0.9,0.4-0.9,0.9v4.3c0,0.5,0.4,0.9,0.9,0.9h3.4
		c0.5,0,0.9-0.4,0.9-0.9S32.3,58.2,31.8,58.2z"/>
	<path class="st0" d="M84.9,65.9h-2.4l1.2-4.9c0.1-0.3,0-0.5-0.2-0.7c-0.1-0.1-0.3-0.2-0.5-0.3l0.3-1.8H84c0.5,0,0.9-0.4,0.9-0.9
		s-0.4-0.9-0.9-0.9h-0.6c-0.1-2.3-2.1-4.1-4.4-4.1l0,0l-0.6-1.6c-0.2-0.4-0.7-0.7-1.1-0.5s-0.6,0.6-0.5,1l0.5,1.4
		c-0.4,0.2-0.8,0.5-1.1,0.8l-0.9-0.9c-0.4-0.3-0.9-0.3-1.2,0.1c-0.3,0.3-0.3,0.8,0,1.1l1.1,1.1c-0.3,0.7-0.4,1.4-0.4,2.2l0.4,2.8
		c-0.2,0-0.3,0.1-0.5,0.3s-0.2,0.5-0.2,0.7l1.2,5h-5.6l1.8-1.3c0.4-0.3,0.4-0.8,0.2-1.2l-8.6-12.5c-0.3-0.4-0.8-0.5-1.2-0.2l0,0
		l-2.6,2c-0.1,0.1-0.2,0.3-0.3,0.4h-0.1h-2.6v-0.9c0-0.5-0.4-0.9-0.9-0.9H49c-0.5,0-0.9,0.4-0.9,0.9v13.7h-1.7
		c-0.5,0-0.9,0.4-0.9,0.9s0.4,0.9,0.9,0.9h38.5c0.5,0,0.9-0.4,0.9-0.9S85.4,65.9,84.9,65.9z M77.9,54.4c0.2,0.3,0.6,0.5,1,0.3
		c0.3-0.1,0.5-0.3,0.5-0.6c0.6,0.1,1.2,0.3,1.6,0.8c0.4,0.4,0.6,1,0.7,1.5h-0.3c-0.5,0-0.9,0.4-0.9,0.9s0.4,0.9,0.9,0.9h0.1
		l-0.2,1.7h-4.5l-0.4-3c0-0.2,0-0.5,0.1-0.7c0.4,0.2,0.9,0.1,1.2-0.3c0.2-0.3,0.1-0.7-0.1-1l-0.2-0.2C77.5,54.7,77.7,54.5,77.9,54.4
		z M76.4,61.6h5.3l-1,4.3h-3.3L76.4,61.6z M62.6,52.6l7.6,11.1l-1.2,1l-7.6-11.1L62.6,52.6z M54.9,65.9h-1.7V53.1h1.7V65.9z
		 M49.8,53.1h1.7v12.8h-1.7V53.1z M56.6,65.9V54.8h1.7v11.1H56.6z M60.1,54.7l7.7,11.2h-7.7C60.1,65.9,60.1,54.7,60.1,54.7z"/>
	<path class="st0" d="M45.5,97.6H30.1c-1.9,0-3.4,1.5-3.4,3.4s1.5,3.4,3.4,3.4h6.8v9.7l-7.2,3.2c-0.4,0.2-0.6,0.7-0.4,1.1
		s0.7,0.6,1.1,0.4l7.4-3.3l7.4,3.3c0.4,0.2,0.9,0,1.1-0.4c0.2-0.4,0-0.9-0.4-1.1l0,0l-7.2-3.2v-9.7h6.8c1.9,0,3.4-1.5,3.4-3.4
		S47.4,97.6,45.5,97.6z M45.5,102.7H30.1c-0.9,0-1.7-0.8-1.7-1.7s0.8-1.7,1.7-1.7h15.4c0.9,0,1.7,0.8,1.7,1.7S46.5,102.7,45.5,102.7
		z"/>
	<path class="st0" d="M34.8,77.7c0.3-0.3,0.3-0.9,0-1.2c-0.3-0.3-0.9-0.3-1.2,0l-2.9,2.9c-0.3,0.3-0.3,0.9,0,1.2s0.9,0.3,1.2,0
		L34.8,77.7z"/>
	<path class="st0" d="M36.8,76.6l-5,5c-0.4,0.3-0.4,0.8-0.1,1.2c0.3,0.4,0.8,0.4,1.2,0.1l0.1-0.1l5-5c0.3-0.4,0.3-0.9-0.1-1.2
		C37.6,76.4,37.1,76.4,36.8,76.6L36.8,76.6z"/>
	<path class="st0" d="M73.8,97.6h3.4c0.5,0,0.9-0.4,0.9-0.9s-0.4-0.9-0.9-0.9h-3.4c-0.5,0-0.9,0.4-0.9,0.9S73.3,97.6,73.8,97.6z"/>
	<path class="st0" d="M77.2,104.5h-3.4c-0.5,0-0.9,0.4-0.9,0.9s0.4,0.9,0.9,0.9h3.4c0.5,0,0.9-0.4,0.9-0.9S77.7,104.5,77.2,104.5z"
		/>
	<path class="st0" d="M77.2,113h-3.4c-0.5,0-0.9,0.4-0.9,0.9s0.4,0.9,0.9,0.9h3.4c0.5,0,0.9-0.4,0.9-0.9S77.7,113,77.2,113z"/>
	<path class="st0" d="M85.8,72.8c0-0.5-0.4-0.9-0.9-0.9h-18c-0.5,0-0.9,0.4-0.9,0.9v15.4h-6v-0.9c2.3-0.5,3.7-2.7,3.2-5
		c-0.4-1.6-1.6-2.9-3.2-3.2v-0.3c0-0.5-0.4-0.9-0.9-0.9h-6.8c-0.5,0-0.9,0.4-0.9,0.9v9.4h-2.6c0-0.1,0.1-0.3,0.1-0.4
		c0-1-0.7-1.9-1.7-2.1l0,0V74.5c0-0.5-0.4-0.9-0.9-0.9H29.2c-0.5,0-0.9,0.4-0.9,0.9v11.1l0,0c-1.2,0.2-1.9,1.3-1.7,2.4v0.1H18
		c-0.5,0-0.9,0.4-0.9,0.9v29.1c0,0.5,0.4,0.9,0.9,0.9s0.9-0.4,0.9-0.9V93.3h46.2v24.8c0,0.5,0.4,0.9,0.9,0.9h18.8
		c0.5,0,0.9-0.4,0.9-0.9V93.3c0-0.2,0-0.3-0.1-0.4c0.1-0.1,0.1-0.3,0.1-0.4V89c0-0.2,0-0.3-0.1-0.4c0.1-0.1,0.1-0.3,0.1-0.4
		L85.8,72.8L85.8,72.8z M66.9,101.9H84v6.8H66.9V101.9z M84,88.2h-4.3V73.6H84V88.2z M73.8,73.6H78v14.6h-4.3V73.6H73.8z M67.8,73.6
		h4.3v14.6h-4.3V73.6z M61.7,83.2c0,1-0.7,1.9-1.6,2.3v-4.7C61,81.3,61.7,82.2,61.7,83.2z M53.2,79.6h5.1v8.6h-5.1V79.6z M30.1,75.3
		h15.4v10.3H30.1V75.3z M28.7,88.2c-0.2,0-0.4-0.3-0.4-0.5s0.3-0.4,0.5-0.4h18c0.2-0.1,0.5,0.1,0.5,0.3c0.1,0.2-0.1,0.5-0.3,0.5l0,0
		h-0.1L28.7,88.2L28.7,88.2z M19,91.6v-1.7h65v1.7H19z M84,93.3v6.8H66.9v-6.8H84z M66.9,117.3v-6.8H84v6.8H66.9z"/>
	<path class="st0" d="M70.3,84.8h-0.9c-0.5,0-0.9,0.4-0.9,0.9s0.4,0.9,0.9,0.9h0.9c0.5,0,0.9-0.4,0.9-0.9
		C71.2,85.1,70.8,84.8,70.3,84.8z"/>
	<path class="st0" d="M76.3,84.8h-0.9c-0.5,0-0.9,0.4-0.9,0.9s0.4,0.9,0.9,0.9h0.9c0.5,0,0.9-0.4,0.9-0.9
		C77.2,85.1,76.8,84.8,76.3,84.8z"/>
	<path class="st0" d="M81.5,86.5h0.9c0.5,0,0.9-0.4,0.9-0.9s-0.4-0.9-0.9-0.9h-0.9c-0.5,0-0.9,0.4-0.9,0.9S81,86.5,81.5,86.5z"/>
</g>
<g>
	<path class="st0" d="M52.5,34v-5.3c0-0.5-0.4-1-1-1s-1,0.4-1,1V34c0,0.5,0.4,1,1,1C52,35,52.5,34.6,52.5,34z"/>
	<path class="st0" d="M46.4,27c0.4-0.4,0.4-1,0-1.4c-0.2-0.2-0.4-0.3-0.7-0.3s-0.5,0.1-0.7,0.3l-3.7,3.7c-0.4,0.4-0.4,1,0,1.4
		s1,0.4,1.4,0L46.4,27z"/>
	<path class="st0" d="M61.8,30.8c0.4-0.4,0.4-1,0-1.4L58,25.6c-0.2-0.2-0.4-0.3-0.7-0.3s-0.5,0.1-0.7,0.3c-0.4,0.4-0.4,1,0,1.4
		l3.7,3.7C60.7,31.1,61.4,31.1,61.8,30.8z"/>
	<path class="st0" d="M58.8,20.5c0,0.5,0.4,1,1,1H65c0.5,0,1-0.4,1-1c0-0.5-0.4-1-1-1h-5.3C59.2,19.5,58.8,19.9,58.8,20.5z"/>
	<path class="st0" d="M38,21.5h5.3c0.5,0,1-0.4,1-1c0-0.5-0.4-1-1-1H38c-0.5,0-1,0.4-1,1C37,21,37.4,21.5,38,21.5z"/>
	<path class="st0" d="M45,15.4c0.4,0.4,1,0.4,1.4,0s0.4-1,0-1.4l-3.7-3.7C42.5,10.1,42.3,10,42,10s-0.5,0.1-0.7,0.3
		c-0.4,0.4-0.4,1,0,1.4L45,15.4z"/>
	<path class="st0" d="M51.5,26.8c3.4,0,6.3-2.8,6.3-6.3c0-3.4-2.8-6.3-6.3-6.3s-6.3,2.8-6.3,6.3S48.1,26.8,51.5,26.8z M51.5,16.2
		v8.6c-2.4,0-4.3-1.9-4.3-4.3S49.1,16.2,51.5,16.2z"/>
	<path class="st0" d="M51.5,13.2c0.5,0,1-0.4,1-1V7c0-0.5-0.4-1-1-1c-0.5,0-1,0.4-1,1v5.3C50.5,12.8,51,13.2,51.5,13.2z"/>
	<path class="st0" d="M58,15.4l3.7-3.7c0.4-0.4,0.4-1,0-1.4C61.5,10.1,61.3,10,61,10s-0.5,0.1-0.7,0.3L56.6,14c-0.4,0.4-0.4,1,0,1.4
		C57,15.7,57.6,15.7,58,15.4z"/>
</g>
</svg>
