<?xml version="1.0" encoding="utf-8"?>
<!-- Generator: Adobe Illustrator 21.0.2, SVG Export Plug-In . SVG Version: 6.00 Build 0)  -->
<svg version="1.1" id="Layer_1" xmlns="http://www.w3.org/2000/svg" xmlns:xlink="http://www.w3.org/1999/xlink" x="0px" y="0px"
	 viewBox="0 0 90 112.5" style="enable-background:new 0 0 90 112.5;" xml:space="preserve">
<style type="text/css">
	.st0{fill:#233139;}
</style>
<g>
	<circle class="st0" cx="43.7" cy="57.6" r="8.3"/>
	<path class="st0" d="M81.7,80.9V68.8L80,71.2l-1.6-2.3l-1.6,2.3l-1.6-2.3l-1.6,2.3L72,68.8l-1.6,2.4l-1.6-2.3l-1.6,2.3l-1.6-2.3v12
		h-3.2v-9.3h-3.6v-2.1h2v-3.8h-8v3.8H55v2.1h-1.2c-0.9-2.2-3.1-3.8-5.6-3.8h-8.8c-3.3,0-6.1,2.7-6.1,6.1v0.3h-7v6.7h-1.9V68.1H18
		v12.8h-1.9v-9.6h-4.7v9.6H4v1.8v0.4v28.5h0.8h1.4h77.6h1.1H86V83.1v-0.4v-1.8H81.7z M51.2,73.1h5.2v-5h-2.2v-0.9h5.1v0.9h-2v5h3.6
		v7.8h-9.7V73.1z M43.3,78.9l6.7-5.2v7.2h-6.7V78.9z M27.7,75.7h10.2v5.1H27.7V75.7z M83.8,109.4H6.2V83.1h77.6V109.4z"/>
	<path class="st0" d="M46,27.9v-5.2c0-0.5-0.4-1-1-1s-1,0.4-1,1v5.2c0,0.5,0.4,1,1,1C45.5,28.8,46,28.4,46,27.9z"/>
	<path class="st0" d="M39.9,20.9c0.4-0.4,0.4-1,0-1.4c-0.2-0.2-0.4-0.3-0.7-0.3c-0.3,0-0.5,0.1-0.7,0.3l-3.7,3.7
		c-0.4,0.4-0.4,1,0,1.4c0.4,0.4,1,0.4,1.4,0L39.9,20.9z"/>
	<path class="st0" d="M55.2,24.6c0.4-0.4,0.4-1,0-1.4l-3.7-3.7c-0.2-0.2-0.4-0.3-0.7-0.3c-0.3,0-0.5,0.1-0.7,0.3
		c-0.4,0.4-0.4,1,0,1.4l3.7,3.7C54.2,25,54.8,25,55.2,24.6z"/>
	<path class="st0" d="M52.2,14.4c0,0.5,0.4,1,1,1h5.2c0.5,0,1-0.4,1-1c0-0.5-0.4-1-1-1h-5.2C52.6,13.5,52.2,13.9,52.2,14.4z"/>
	<path class="st0" d="M31.6,15.4h5.2c0.5,0,1-0.4,1-1c0-0.5-0.4-1-1-1h-5.2c-0.5,0-1,0.4-1,1C30.6,15,31,15.4,31.6,15.4z"/>
	<path class="st0" d="M38.5,9.3c0.4,0.4,1,0.4,1.4,0c0.4-0.4,0.4-1,0-1.4l-3.7-3.7C36,4.1,35.8,4,35.5,4c-0.3,0-0.5,0.1-0.7,0.3
		c-0.4,0.4-0.4,1,0,1.4L38.5,9.3z"/>
	<path class="st0" d="M45,20.7c3.4,0,6.2-2.8,6.2-6.2c0-3.4-2.8-6.2-6.2-6.2s-6.2,2.8-6.2,6.2S41.6,20.7,45,20.7z M45,10.2v8.5
		c-2.4,0-4.3-1.9-4.3-4.3C40.7,12.1,42.6,10.2,45,10.2z"/>
	<path class="st0" d="M45,7.2c0.5,0,1-0.4,1-1V1c0-0.5-0.4-1-1-1c-0.5,0-1,0.4-1,1v5.2C44,6.8,44.5,7.2,45,7.2z"/>
	<path class="st0" d="M51.5,9.3l3.7-3.7c0.4-0.4,0.4-1,0-1.4C55,4.1,54.7,4,54.5,4c-0.3,0-0.5,0.1-0.7,0.3l-3.7,3.7
		c-0.4,0.4-0.4,1,0,1.4C50.5,9.7,51.1,9.7,51.5,9.3z"/>
</g>
</svg>
