<?xml version="1.0" encoding="utf-8"?>
<!-- Generator: Adobe Illustrator 21.0.2, SVG Export Plug-In . SVG Version: 6.00 Build 0)  -->
<svg version="1.1"
	 id="Layer_1" xmlns:cc="http://creativecommons.org/ns#" xmlns:dc="http://purl.org/dc/elements/1.1/" xmlns:inkscape="http://www.inkscape.org/namespaces/inkscape" xmlns:rdf="http://www.w3.org/1999/02/22-rdf-syntax-ns#" xmlns:sodipodi="http://sodipodi.sourceforge.net/DTD/sodipodi-0.dtd" xmlns:svg="http://www.w3.org/2000/svg"
	 xmlns="http://www.w3.org/2000/svg" xmlns:xlink="http://www.w3.org/1999/xlink" x="0px" y="0px" viewBox="0 0 100 108"
	 style="enable-background:new 0 0 100 108;" xml:space="preserve">
<style type="text/css">
	.st0{fill:#FFFFFF;}
</style>
<g transform="translate(0,-952.36218)">
	<path class="st0" d="M8,962.4c-1.7,0-3,1.3-3,3s1.3,3,3,3h10c5,12.3,9.9,24.6,14.8,36.9l-4.5,10.9c-0.4,0.9-0.3,2,0.3,2.8
		c0.5,0.8,1.5,1.3,2.5,1.3h50c1.6,0,3-1.4,3-3s-1.5-3-3-3H35.5l2.6-6.2l48.2-3.8c1.3-0.1,2.4-1.1,2.7-2.3l6-26
		c0.4-1.8-1.1-3.7-2.9-3.7H26l-3.2-8.1c-0.4-1.1-1.6-1.9-2.8-1.9H8z M28.4,978.4H47v9H32L28.4,978.4z M53,978.4h12v9H53V978.4z
		 M71,978.4h17.2l-2.1,9H71V978.4z M34.4,993.4H47v8.1l-9,0.7L34.4,993.4z M53,993.4h12v6.7l-12,1V993.4z M71,993.4h13.8l-1.2,5.2
		l-12.6,1V993.4z M41,1022.4c-5.5,0-10,4.5-10,10c0,5.5,4.5,10,10,10s10-4.5,10-10S46.5,1022.4,41,1022.4z M71,1022.4
		c-5.5,0-10,4.5-10,10s4.5,10,10,10s10-4.5,10-10C81,1026.9,76.5,1022.4,71,1022.4z M41,1028.4c2.2,0,4,1.8,4,4s-1.8,4-4,4
		c-2.2,0-4-1.8-4-4S38.8,1028.4,41,1028.4z M71,1028.4c2.2,0,4,1.8,4,4s-1.8,4-4,4c-2.2,0-4-1.8-4-4S68.8,1028.4,71,1028.4z"/>
</g>
</svg>
