<?xml version="1.0" encoding="utf-8"?>
<!-- Generator: Adobe Illustrator 21.0.2, SVG Export Plug-In . SVG Version: 6.00 Build 0)  -->
<svg version="1.1" id="Layer_1" xmlns="http://www.w3.org/2000/svg" xmlns:xlink="http://www.w3.org/1999/xlink" x="0px" y="0px"
	 viewBox="0 0 20 20.7" style="enable-background:new 0 0 20 20.7;" xml:space="preserve">
<style type="text/css">
	.st0{fill:#233139;}
</style>
<path class="st0" d="M20,7V5.1V5c0-0.2-0.1-0.4-0.2-0.6l-1.9-3.8C17.7,0.2,17.4,0,17,0H3C2.6,0,2.3,0.2,2.1,0.6l-2,4l0,0
	c0,0,0,0,0,0.1C0,4.8,0,4.9,0,5l0,0v2c0,1.5,0.8,2.8,2,3.4V18H0v2h20v-2h-2v-7.6C19.2,9.8,20,8.5,20,7z M18,7c0,1.1-0.9,2-2,2
	s-2-0.9-2-2V6h4V7z M12,7c0,1.1-0.9,2-2,2S8,8.1,8,7V6h4V7z M6,7c0,1.1-0.9,2-2,2S2,8.1,2,7V6h4V7z M11.8,4H8.2l0.3-2h3L11.8,4z
	 M17.4,4h-3.5l-0.3-2h2.9L17.4,4z M3.6,2h2.9L6.1,4H2.6L3.6,2z M4,11c1.2,0,2.3-0.5,3-1.4c0.7,0.8,1.8,1.4,3,1.4v7H4V11z M16,18h-4
	v-3h1v-2h-1v-2.5c0.4-0.2,0.7-0.5,1-0.8c0.7,0.8,1.8,1.4,3,1.4V18z"/>
</svg>
