<?xml version="1.0" encoding="utf-8"?>
<!-- Generator: Adobe Illustrator 21.0.2, SVG Export Plug-In . SVG Version: 6.00 Build 0)  -->
<svg version="1.1" id="Layer_1" xmlns="http://www.w3.org/2000/svg" xmlns:xlink="http://www.w3.org/1999/xlink" x="0px" y="0px"
	 viewBox="0 0 100 103.8" style="enable-background:new 0 0 100 103.8;" xml:space="preserve">
<style type="text/css">
	.st0{fill:#FFFFFF;}
</style>
<g>
	<path class="st0" d="M57.7,45.9c-1.9-2.1-3.7-4.4-5.4-6.5c-0.8-1-1.5-1.9-2.2-2.8L50,36.5c1-2.9,1.6-5.4,1.8-7.2
		c0.3-4.6-0.2-7.6-1.6-9.1c-0.9-1-2.4-1.4-3.7-0.9c-1,0.3-2.2,1.2-3,3.4c-1.1,3.4-0.6,9.3,2.6,14.3c-1.4,3.6-3.3,7.8-5.5,11.8
		c-4.1,1.4-7.3,3.3-9.7,5.6c-3.1,3-4.3,5.9-3.4,8.1c0.5,1.3,1.8,2.2,3.4,2.2c1.1,0,2.3-0.4,3.4-1.1c2.9-1.9,6.7-8.2,8.7-11.8
		c4.2-1.3,8.3-1.8,10.4-2c1-0.1,1.9-0.2,2.8-0.2c3.7,3.9,6.7,5.9,9.5,6.4c0.6,0.1,1.1,0.2,1.7,0.2c2.3,0,4.1-0.9,5-2.4
		c0.7-1.1,0.6-2.5,0-3.7c-1.5-2.7-6.2-4.1-13.1-4.1C58.7,45.9,58.2,45.9,57.7,45.9z M32.4,60.6c-0.5,0.4-1.1,0.6-1.5,0.6
		c-0.1,0-0.1,0-0.2,0c-0.1-0.3,0.2-1.9,2.6-4.2c1.1-1.1,2.6-2.1,4.3-3.1C35.5,57.4,33.5,59.9,32.4,60.6z M46.8,23.8
		c0.3-0.8,0.6-1.1,0.8-1.2l0,0c0.2,0.2,1,1.4,0.6,6.4c-0.1,0.9-0.3,2-0.6,3.3C46.4,29.3,46.1,26,46.8,23.8z M53.1,46.2
		c-1.9,0.2-4.7,0.5-7.9,1.3c1.2-2.5,2.4-4.9,3.3-7.2c0.3,0.4,0.7,0.8,1,1.3c1.1,1.4,2.4,3.1,3.8,4.6L53.1,46.2z M69.3,51.7
		c0.1,0.1,0.1,0.1,0,0.2c-0.1,0.3-0.8,0.7-2,0.7c-0.3,0-0.7,0-1-0.1c-1.4-0.3-3.1-1.3-5.1-3C66.6,49.7,68.8,51,69.3,51.7z"/>
	<path class="st0" d="M65.1,5H19.8c-2.8,0-5,2.2-5,5v80c0,2.8,2.3,5,5,5h60.4c2.8,0,5-2.3,5-5V25.1L65.1,5z M65.1,12.1l13,13h-13
		V12.1z M80.2,90H19.8V10H60v15.1c0,2.8,2.2,5,5,5h15.1L80.2,90L80.2,90z"/>
	<path class="st0" d="M41.7,69.4c-0.4-0.4-0.9-0.6-1.5-0.8c-0.6-0.2-1.3-0.2-2.4-0.2h-3.3c-0.6,0-1.1,0.1-1.4,0.4
		c-0.3,0.3-0.5,0.8-0.5,1.4v9.9c0,0.6,0.1,1,0.4,1.3c0.3,0.3,0.7,0.5,1.1,0.5c0.4,0,0.8-0.2,1.1-0.5s0.4-0.8,0.4-1.4v-3.4h2.1
		c1.7,0,2.9-0.4,3.8-1.1c0.9-0.7,1.3-1.8,1.3-3.2c0-0.6-0.1-1.2-0.3-1.8C42.4,70.2,42.1,69.7,41.7,69.4z M39.5,73.5
		c-0.2,0.3-0.5,0.4-0.8,0.5c-0.4,0.1-0.9,0.2-1.5,0.2h-1.5v-3.4h1.5c1.4,0,1.9,0.3,2.1,0.5c0.3,0.3,0.4,0.7,0.4,1.2
		C39.8,72.9,39.7,73.3,39.5,73.5z"/>
	<path class="st0" d="M54.1,69.6c-0.5-0.5-1.2-0.8-1.8-1c-0.7-0.2-1.4-0.3-2.3-0.3h-3.4c-0.6,0-1.1,0.2-1.4,0.5s-0.5,0.8-0.5,1.4
		v9.4c0,0.4,0,0.8,0.1,1.1c0.1,0.3,0.3,0.6,0.6,0.8c0.3,0.2,0.7,0.3,1.2,0.3H50c0.6,0,1.2,0,1.6-0.1c0.5-0.1,1-0.2,1.4-0.4
		c0.4-0.2,0.8-0.5,1.2-0.8c0.5-0.4,0.8-0.9,1.1-1.4s0.5-1.1,0.6-1.8c0.1-0.7,0.2-1.4,0.2-2.2C56.2,72.6,55.4,70.8,54.1,69.6z
		 M51.8,78.6c-0.2,0.1-0.4,0.3-0.6,0.3C51,79,50.7,79,50.5,79.1c-0.2,0-0.6,0-1,0h-1.7v-8.2h1.5c0.8,0,1.4,0.1,2,0.2
		c0.5,0.2,0.9,0.5,1.3,1.1c0.4,0.6,0.5,1.5,0.5,2.7C53,76.7,52.6,77.9,51.8,78.6z"/>
	<path class="st0" d="M65.9,68.3h-6.2c-0.4,0-0.7,0.1-1,0.2s-0.5,0.3-0.6,0.6c-0.1,0.3-0.2,0.6-0.2,1V80c0,0.6,0.1,1.1,0.4,1.4
		c0.3,0.3,0.7,0.5,1.1,0.5c0.4,0,0.8-0.2,1.1-0.5s0.4-0.8,0.4-1.4v-4h4c0.5,0,0.8-0.1,1.1-0.3c0.3-0.2,0.4-0.5,0.4-0.9
		s-0.1-0.7-0.4-0.9c-0.2-0.2-0.6-0.3-1.1-0.3h-4v-2.8h4.9c0.5,0,0.8-0.1,1.1-0.3c0.3-0.2,0.4-0.5,0.4-0.9s-0.1-0.7-0.4-0.9
		C66.7,68.4,66.4,68.3,65.9,68.3z"/>
</g>
</svg>
