<?xml version="1.0" encoding="utf-8"?>
<!-- Generator: Adobe Illustrator 21.0.2, SVG Export Plug-In . SVG Version: 6.00 Build 0)  -->
<svg version="1.1"
	 id="Layer_1" xmlns:cc="http://creativecommons.org/ns#" xmlns:dc="http://purl.org/dc/elements/1.1/" xmlns:inkscape="http://www.inkscape.org/namespaces/inkscape" xmlns:rdf="http://www.w3.org/1999/02/22-rdf-syntax-ns#" xmlns:sodipodi="http://sodipodi.sourceforge.net/DTD/sodipodi-0.dtd" xmlns:svg="http://www.w3.org/2000/svg"
	 xmlns="http://www.w3.org/2000/svg" xmlns:xlink="http://www.w3.org/1999/xlink" x="0px" y="0px" viewBox="0 0 100 111"
	 style="enable-background:new 0 0 100 111;" xml:space="preserve">
<style type="text/css">
	.st0{fill:#233139;}
</style>
<g transform="translate(0,-952.36218)">
	<path class="st0" d="M38,964.4c-1.1,0-2.1,0.7-2.6,1.5l-6.2,10.5H15c-6.6,0-12,5.4-12,12v40c0,6.6,5.4,12,12,12h70
		c6.6,0,12-5.4,12-12v-40c0-6.6-5.4-12-12-12H70.8l-6.2-10.5c-0.5-0.9-1.6-1.5-2.6-1.5C62,964.4,38,964.4,38,964.4z M39.7,970.4
		h20.6l6.1,10.5c0.5,0.9,1.5,1.5,2.6,1.5h16c3.4,0,6,2.6,6,6v40c0,3.4-2.6,6-6,6H15c-3.4,0-6-2.6-6-6v-40c0-3.4,2.6-6,6-6h16
		c1,0,2.1-0.6,2.6-1.5C33.6,980.9,39.7,970.4,39.7,970.4z M50,984.4c-13.2,0-24,10.8-24,24c0,13.2,10.8,24,24,24
		c13.2,0,24-10.8,24-24S63.2,984.4,50,984.4z M81,986.4c-2.8,0-5,2.2-5,5s2.2,5,5,5s5-2.2,5-5S83.8,986.4,81,986.4z M50,990.4
		c10,0,18,8,18,18c0,10-8,18-18,18c-10,0-18-8-18-18C32,998.4,40,990.4,50,990.4z M50,994.4c-7.7,0-14,6.3-14,14c0,7.7,6.3,14,14,14
		s14-6.3,14-14C64,1000.7,57.7,994.4,50,994.4z M50,1000.4c4.5,0,8,3.5,8,8s-3.5,8-8,8s-8-3.5-8-8S45.5,1000.4,50,1000.4z"/>
</g>
</svg>
