<?xml version="1.0" encoding="utf-8"?>
<!-- Generator: Adobe Illustrator 21.0.2, SVG Export Plug-In . SVG Version: 6.00 Build 0)  -->
<svg version="1.1" id="Layer_1" xmlns="http://www.w3.org/2000/svg" xmlns:xlink="http://www.w3.org/1999/xlink" x="0px" y="0px"
	 viewBox="0 0 100 99.8" style="enable-background:new 0 0 100 99.8;" xml:space="preserve">
<style type="text/css">
	.st0{fill:#FFFFFF;}
</style>
<title>Artboard 14</title>
<path class="st0" d="M23.4,99h53.1c5.1,0,9.2-4.1,9.2-9.2V31.4c0-2.8-1.3-5.4-3.5-7.2L55.7,3c-3.4-2.7-8.1-2.7-11.5,0L17.7,24.2
	c-2.2,1.7-3.5,4.4-3.5,7.2v58.4C14.2,94.9,18.4,99,23.4,99z M50,18.3c3.8,0,6.8,3.1,6.8,6.8S53.8,32,50,32c-3.8,0-6.8-3.1-6.8-6.8
	S46.2,18.3,50,18.3L50,18.3z M46.9,48v-1.9c0-1.7,1.3-3,3-3s3,1.3,3,3v1.5c1.4,0.1,2.9,0.3,4.3,0.7c1.8,0.5,2.9,2.4,2.4,4.3
	C59.1,54,57.8,55,56.3,55c-0.3,0-0.7,0-1-0.1c-1.4-0.4-2.8-0.6-4.3-0.6c-2.5,0-3.9,0.9-3.9,2.3c0,1.3,1.5,2.3,5.8,3.9
	c6.2,2.2,8.8,5.2,8.8,10s-3.5,8.7-9.1,9.8v2.3c0,1.7-1.3,3-3,3s-3-1.3-3-3v-1.9c-2-0.1-3.9-0.5-5.7-1.1c-1.7-0.6-2.7-2.4-2.3-4.1
	l0.1-0.2c0.4-1.5,1.7-2.5,3.3-2.5c0.4,0,0.8,0.1,1.1,0.2c1.7,0.6,3.5,0.9,5.3,0.9c2.8,0,4.4-1,4.4-2.7s-1.4-2.7-5.1-4
	c-4.4-1.5-9.5-4-9.5-9.8C38.3,52.8,41.6,49.2,46.9,48z"/>
</svg>
