<?xml version="1.0" encoding="utf-8"?>
<!-- Generator: Adobe Illustrator 21.0.2, SVG Export Plug-In . SVG Version: 6.00 Build 0)  -->
<svg version="1.1" id="Layer_1" xmlns="http://www.w3.org/2000/svg" xmlns:xlink="http://www.w3.org/1999/xlink" x="0px" y="0px"
	 viewBox="0 0 100 100.5" style="enable-background:new 0 0 100 100.5;" xml:space="preserve">
<style type="text/css">
	.st0{fill:#233139;}
</style>
<title>Artboard 3</title>
<path class="st0" d="M5.8,62.2c-0.1-3.6-0.1-7.5,0-11.4c0-2.2,1-4.2,2.8-5.5C8.2,34.5,12.1,24,19.4,16.1c5.7-6.5,13.5-11,22-12.6
	c16-3.1,29.5,1.6,40.2,13.7c6.8,7.8,10.1,17.3,9.8,28.1c1.8,1.4,2.8,3.6,2.8,5.8v2.3c0,2.8,0,5.5,0,8.3c0,2.6-1.4,5.1-3.7,6.4
	c-1.8,1.1-4,1.8-6.1,1.9h-0.5c-2.6,0-5-1.5-5.9-3.9c-0.5-1.3-0.9-2.6-0.9-4v-0.1l0.2-13c0.3-2.7,2.1-5,4.7-5.9
	c-0.1-4.6-1.2-9.1-3.2-13.2c-5.1-10.1-13.3-16-24.3-17.6c-17.1-2.5-33.1,9.1-36,26.2c-0.2,1.4-0.3,2.7-0.4,4.1v0.6
	c2.2,0.7,3.8,2.4,4.4,4.6c0.3,1,0.5,2.1,0.5,3.2c0,3.9,0,7.4,0,10.8c0,1.2-0.2,2.3-0.6,3.4c-0.4,1.4-1.3,2.6-2.4,3.5
	c0.8,9.4,8.7,16.7,18.1,16.7h2.4c0.8-1.5,2.4-2.4,4.1-2.4h9c2.6,0,4.7,2.1,4.7,4.7l0,0v5c0,2.6-2.1,4.7-4.7,4.7c0,0,0,0,0,0h-9
	c-1.7,0-3.3-0.9-4.1-2.4h-2.4c-14.7,0-26.9-11.5-27.7-26.2c-0.5-0.3-1-0.5-1.4-0.9C7.1,66.6,5.9,64.5,5.8,62.2z M51.6,64.6h-5.9
	c-1.3,0-2.3,1-2.3,2.3l0,0v3.8c0,1.3,1,2.3,2.3,2.3c0,0,0,0,0,0h5.9c1.3,0,2.3-1,2.3-2.3l0,0v-3.8C53.9,65.7,52.9,64.6,51.6,64.6
	C51.6,64.6,51.6,64.6,51.6,64.6L51.6,64.6z M54.6,56c0.6-1.2,1.6-2.2,2.7-2.8c2.4-1.2,4.4-3,6-5.1c1.5-2.1,2.3-4.6,2.3-7.2
	c0.2-3.8-1.4-7.6-4.3-10.1c-2.8-2.5-6.7-3.7-11.7-3.8c-4.6,0-8.3,1.1-11.2,3.3c-2.5,2-4,5-4.1,8.2c-0.1,0.8,0.6,1.5,1.4,1.6
	c0,0,0.1,0,0.1,0l6.7,0.1c1.1,0,2.1-0.7,2.4-1.7c0.2-0.8,0.6-1.5,1.2-2.1c1-0.9,2.2-1.3,3.5-1.3c1.5-0.1,3,0.5,4,1.6
	c1,1.2,1.5,2.7,1.4,4.2c0,1.6-0.4,3.1-1.2,4.5c-0.8,1.3-2,2.4-3.3,3.2c-2.1,1.4-4,3-5.6,5c-0.9,1.4-1.4,3.1-1.5,4.8
	c-0.1,0.9,0.6,1.7,1.5,1.8c0,0,0.1,0,0.1,0h7.3c0.8,0,1.5-0.6,1.6-1.5C54.1,57.7,54.3,56.8,54.6,56L54.6,56z"/>
</svg>
