<?xml version="1.0" encoding="utf-8"?>
<!-- Generator: Adobe Illustrator 21.0.2, SVG Export Plug-In . SVG Version: 6.00 Build 0)  -->
<svg version="1.1" id="Layer_1" xmlns="http://www.w3.org/2000/svg" xmlns:xlink="http://www.w3.org/1999/xlink" x="0px" y="0px"
	 viewBox="0 0 100 100" style="enable-background:new 0 0 100 100;" xml:space="preserve">
<style type="text/css">
	.st0{fill:#FFFFFF;}
</style>
<path class="st0" d="M40,0h20c1.8,0,3.3,1.5,3.3,3.3v20c0,1.8-1.5,3.3-3.3,3.3H40c-1.8,0-3.3-1.5-3.3-3.3v-20C36.7,1.5,38.2,0,40,0z
	"/>
<path class="st0" d="M76.7,0h20c1.8,0,3.3,1.5,3.3,3.3v20c0,1.8-1.5,3.3-3.3,3.3h-20c-1.8,0-3.3-1.5-3.3-3.3v-20
	C73.3,1.5,74.8,0,76.7,0z"/>
<path class="st0" d="M3.3,0h20c1.8,0,3.3,1.5,3.3,3.3v20c0,1.8-1.5,3.3-3.3,3.3h-20c-1.8,0-3.3-1.5-3.3-3.3v-20C0,1.5,1.5,0,3.3,0z"
	/>
<path class="st0" d="M40,36.7h20c1.8,0,3.3,1.5,3.3,3.3v20c0,1.8-1.5,3.3-3.3,3.3H40c-1.8,0-3.3-1.5-3.3-3.3V40
	C36.7,38.2,38.2,36.7,40,36.7z"/>
<path class="st0" d="M76.7,36.7h20c1.8,0,3.3,1.5,3.3,3.3v20c0,1.8-1.5,3.3-3.3,3.3h-20c-1.8,0-3.3-1.5-3.3-3.3V40
	C73.3,38.2,74.8,36.7,76.7,36.7z"/>
<path class="st0" d="M3.3,36.7h20c1.8,0,3.3,1.5,3.3,3.3v20c0,1.8-1.5,3.3-3.3,3.3h-20C1.5,63.3,0,61.8,0,60V40
	C0,38.2,1.5,36.7,3.3,36.7z"/>
<path class="st0" d="M40,73.3h20c1.8,0,3.3,1.5,3.3,3.3v20c0,1.8-1.5,3.3-3.3,3.3H40c-1.8,0-3.3-1.5-3.3-3.3v-20
	C36.7,74.8,38.2,73.3,40,73.3z"/>
<path class="st0" d="M76.7,73.3h20c1.8,0,3.3,1.5,3.3,3.3v20c0,1.8-1.5,3.3-3.3,3.3h-20c-1.8,0-3.3-1.5-3.3-3.3v-20
	C73.3,74.8,74.8,73.3,76.7,73.3z"/>
<path class="st0" d="M3.3,73.3h20c1.8,0,3.3,1.5,3.3,3.3v20c0,1.8-1.5,3.3-3.3,3.3h-20C1.5,100,0,98.5,0,96.7v-20
	C0,74.8,1.5,73.3,3.3,73.3z"/>
</svg>
