<?xml version="1.0" encoding="utf-8"?>
<!-- Generator: Adobe Illustrator 21.0.2, SVG Export Plug-In . SVG Version: 6.00 Build 0)  -->
<svg version="1.1" id="Layer_1" xmlns="http://www.w3.org/2000/svg" xmlns:xlink="http://www.w3.org/1999/xlink" x="0px" y="0px"
	 viewBox="0 0 60 75" style="enable-background:new 0 0 60 75;" xml:space="preserve">
<style type="text/css">
	.st0{fill:#233139;}
</style>
<title>Bathroom Objects - Outline - 051 - Mens Toilet</title>
<g>
	<path class="st0" d="M12.5,68h34.9c0.3,0,0.6-0.3,0.6-0.6c0-0.3-0.3-0.6-0.6-0.6h-1.7l1.1-4.7c0.1-0.3-0.1-0.6-0.5-0.7
		c0,0-0.1,0-0.1,0h-3c0-0.4,0-0.7,0-1.1h0.2c2,0,3.9-1.7,4.6-4.2c0.1-0.3-0.1-0.6-0.4-0.7c-1.2-0.3-2.4,0-3.4,0.8
		c-0.6,0.4-1.1,1-1.4,1.6c-0.2-0.5-0.4-1-0.7-1.4c-0.1-2.6-2-4.6-4.2-4.6c-0.3,0-0.6,0.3-0.6,0.6c0,2.5,1.7,4.6,3.9,4.8
		c0.8,0.9,0.9,2.7,0.9,4.2h-3c-0.3,0-0.6,0.3-0.6,0.6c0,0,0,0.1,0,0.1l1.1,4.7h-4.1V32.4c0-0.3-0.3-0.6-0.6-0.6H16.8
		c-0.3,0-0.6,0.3-0.6,0.6v34.3h-3.6c-0.3,0-0.6,0.3-0.6,0.6C11.9,67.7,12.2,68,12.5,68z M44.9,57c0.5-0.4,1.1-0.6,1.7-0.6
		C46,58,44.7,59,43.5,59C43.8,58.3,44.3,57.6,44.9,57z M38.5,53c1.3,0.4,2.1,1.5,2.3,2.8C39.5,55.4,38.6,54.3,38.5,53z M19.8,35.5
		h12V62h-12V35.5z M32.2,34.3H19.4L18.2,33h15.2L32.2,34.3z M19.8,63.2h12v3.6h-12V63.2z M39.8,62.6h5.7l-0.9,4.2h-3.9L39.8,62.6z
		 M33,66.8V35.1l1.2-1.2v32.9H33z M17.4,33.9l1.2,1.2v31.7h-1.2V33.9z"/>
	<path class="st0" d="M30,48.7c-0.3,0-0.6,0.3-0.6,0.6v0.6h-1.8c-0.3,0-0.6,0.3-0.6,0.6s0.3,0.6,0.6,0.6h1.8v0.6
		c0,0.3,0.3,0.6,0.6,0.6s0.6-0.3,0.6-0.6v-2.4C30.6,49,30.3,48.7,30,48.7z"/>
	<path class="st0" d="M26,40.2c0,0,0.1,0,0.1-0.1c0,0,0.1,0,0.1-0.1c0.1-0.1,0.2-0.3,0.2-0.4c0-0.1,0-0.2,0-0.2
		c0-0.1-0.1-0.1-0.1-0.2c0,0-0.1-0.1-0.1-0.1c0,0-0.1,0-0.1-0.1c0,0-0.1,0-0.1,0c-0.2,0-0.4,0-0.5,0.2c-0.2,0.2-0.2,0.6,0,0.9
		c0.1,0.1,0.3,0.2,0.4,0.2h0.1C25.9,40.3,26,40.2,26,40.2z"/>
	<path class="st0" d="M29.4,45.1v-7.8c0-0.3-0.3-0.6-0.6-0.6h-6c-0.3,0-0.6,0.3-0.6,0.6v7.8c0,0.3,0.3,0.6,0.6,0.6h6
		C29.1,45.7,29.4,45.4,29.4,45.1z M28.2,44.5h-4.8v-6.6h4.8V44.5z"/>
	<path class="st0" d="M25.2,41.5v1.2c0,0.3,0.3,0.6,0.6,0.6s0.6-0.3,0.6-0.6v-1.2c0.3,0,0.6-0.3,0.6-0.6s-0.3-0.6-0.6-0.6h-1.2
		c-0.3,0-0.6,0.3-0.6,0.6S24.9,41.5,25.2,41.5z"/>
</g>
<g>
	<path class="st0" d="M30.5,22.8V20c0-0.3-0.2-0.5-0.5-0.5s-0.5,0.2-0.5,0.5v2.8c0,0.3,0.2,0.5,0.5,0.5
		C30.3,23.3,30.5,23.1,30.5,22.8z"/>
	<path class="st0" d="M27.3,19.1c0.2-0.2,0.2-0.5,0-0.7c-0.1-0.1-0.2-0.2-0.4-0.2c-0.1,0-0.3,0.1-0.4,0.2l-2,2
		c-0.2,0.2-0.2,0.5,0,0.7c0.2,0.2,0.5,0.2,0.7,0L27.3,19.1z"/>
	<path class="st0" d="M35.5,21.1c0.2-0.2,0.2-0.5,0-0.7l-2-2c-0.1-0.1-0.2-0.2-0.4-0.2c-0.1,0-0.3,0.1-0.4,0.2
		c-0.2,0.2-0.2,0.5,0,0.7l2,2C34.9,21.3,35.2,21.3,35.5,21.1z"/>
	<path class="st0" d="M33.9,15.6c0,0.3,0.2,0.5,0.5,0.5h2.8c0.3,0,0.5-0.2,0.5-0.5c0-0.3-0.2-0.5-0.5-0.5h-2.8
		C34.1,15.1,33.9,15.3,33.9,15.6z"/>
	<path class="st0" d="M22.8,16.1h2.8c0.3,0,0.5-0.2,0.5-0.5c0-0.3-0.2-0.5-0.5-0.5h-2.8c-0.3,0-0.5,0.2-0.5,0.5
		C22.3,15.9,22.5,16.1,22.8,16.1z"/>
	<path class="st0" d="M26.5,12.9c0.2,0.2,0.5,0.2,0.7,0c0.2-0.2,0.2-0.5,0-0.7l-2-2c-0.1-0.1-0.2-0.2-0.4-0.2
		c-0.1,0-0.3,0.1-0.4,0.2c-0.2,0.2-0.2,0.5,0,0.7L26.5,12.9z"/>
	<path class="st0" d="M30,19c1.8,0,3.3-1.5,3.3-3.3c0-1.8-1.5-3.3-3.3-3.3s-3.3,1.5-3.3,3.3C26.7,17.5,28.2,19,30,19z M30,13.3v4.6
		c-1.3,0-2.3-1-2.3-2.3C27.7,14.4,28.7,13.3,30,13.3z"/>
	<path class="st0" d="M30,11.8c0.3,0,0.5-0.2,0.5-0.5V8.4c0-0.3-0.2-0.5-0.5-0.5c-0.3,0-0.5,0.2-0.5,0.5v2.8
		C29.5,11.5,29.7,11.8,30,11.8z"/>
	<path class="st0" d="M33.5,12.9l2-2c0.2-0.2,0.2-0.5,0-0.7c-0.1-0.1-0.2-0.2-0.4-0.2c-0.1,0-0.3,0.1-0.4,0.2l-2,2
		c-0.2,0.2-0.2,0.5,0,0.7C32.9,13.1,33.3,13.1,33.5,12.9z"/>
</g>
</svg>
