<?xml version="1.0" encoding="utf-8"?>
<!-- Generator: Adobe Illustrator 21.0.2, SVG Export Plug-In . SVG Version: 6.00 Build 0)  -->
<svg version="1.1" id="Layer_1" xmlns="http://www.w3.org/2000/svg" xmlns:xlink="http://www.w3.org/1999/xlink" x="0px" y="0px"
	 viewBox="0 0 100 108.3" style="enable-background:new 0 0 100 108.3;" xml:space="preserve">
<style type="text/css">
	.st0{fill:#233139;}
</style>
<path class="st0" d="M50,8.8c-15.1,0-27.5,12.3-27.5,27.5c0,10.2,6.8,24.3,12.5,34.3c3.6,6.3,7,11.4,8.7,13.9c4.5,6.6,5,6.6,6.1,6.7
	l0.4,0c1.3,0,1.8,0,6.3-6.7c1.7-2.4,5-7.5,8.6-13.9c5.6-10,12.4-24.1,12.4-34.3C77.5,21.2,65.1,8.8,50,8.8z M64.6,42
	c-2.5,5.9-8.2,9.7-14.6,9.7c-6.7,0-12.7-4.2-15-10.5c-0.6-1.7-0.9-3.5-0.9-5.4C34.1,27.1,41.2,20,50,20c8.8,0,15.9,7.1,15.9,15.9
	C65.9,38,65.5,40.1,64.6,42z"/>
</svg>
