<?xml version="1.0" encoding="utf-8"?>
<!-- Generator: Adobe Illustrator 21.0.1, SVG Export Plug-In . SVG Version: 6.00 Build 0)  -->
<svg version="1.1" id="Capa_1" xmlns="http://www.w3.org/2000/svg" xmlns:xlink="http://www.w3.org/1999/xlink" x="0px" y="0px"
	 viewBox="0 0 297 297" style="enable-background:new 0 0 297 297;" xml:space="preserve">
<style type="text/css">
	.st0{fill:#FFFFFF;}
</style>
<g>
	<path class="st0" d="M166.2,274.1v-13.5H157c-13.6,0-24.6-11-24.6-24.6v-33.8c0-13.6,11-24.6,24.6-24.6h9.2v-9.2
		c0-13.6,11-24.6,24.6-24.6h33.8c7.5,0,14.2,3.4,18.7,8.7c4-13.6,6.4-27.6,6.4-41.6C249.8,49.7,200.1,0,139,0S28.3,49.7,28.3,110.8
		c0,91,99.7,179.9,104,183.6c1.9,1.7,4.4,2.6,6.8,2.6c2.4,0,4.8-0.9,6.8-2.6C146.9,293.4,154.8,286.1,166.2,274.1z M108.2,110.8
		c0-17.2,13.8-31.1,30.8-31.1s30.8,14,30.8,31.1S156,141.9,139,141.9C122.1,141.9,108.2,127.9,108.2,110.8z"/>
	<path class="st0" d="M224.6,158h-33.8c-5.7,0-10.3,4.6-10.3,10.3v23.6H157c-5.7,0-10.3,4.6-10.3,10.3V236c0,5.7,4.6,10.3,10.3,10.3
		h23.6v23.6c0,5.7,4.6,10.3,10.3,10.3h33.8c5.7,0,10.3-4.6,10.3-10.3v-23.6h23.6c5.7,0,10.3-4.6,10.3-10.3v-33.8
		c0-5.7-4.6-10.3-10.3-10.3H235v-23.6C234.9,162.6,230.3,158,224.6,158z"/>
</g>
</svg>
