<?xml version="1.0" encoding="iso-8859-1"?>
<!-- Generator: Adobe Illustrator 18.1.1, SVG Export Plug-In . SVG Version: 6.00 Build 0)  -->
<svg version="1.1" id="Capa_1" xmlns="http://www.w3.org/2000/svg" xmlns:xlink="http://www.w3.org/1999/xlink" x="0px" y="0px"
	 viewBox="0 0 27.795 27.795" style="enable-background:new 0 0 27.795 27.795;" xml:space="preserve">
<g>
	<circle cx="5.502" cy="7.539" r="1.646"/>
	<path d="M17.57,8.6c0.359,0.153,0.793,0.247,1.268,0.247c1.213,0,2.195-0.593,2.195-1.325s-0.982-1.324-2.195-1.324
		c-0.455,0-0.877,0.084-1.229,0.227c-0.143-0.14-0.336-0.227-0.551-0.227h-0.32c-0.404,0-0.727,0.309-0.775,0.702
		c-0.98,0.102-1.709,0.458-1.709,0.884c0,0.505,1.023,0.916,2.291,0.916C16.916,8.7,17.262,8.662,17.57,8.6z"/>
	<path d="M24.256,11.952V2.967c0-0.27-0.219-0.489-0.49-0.489H0.492C0.219,2.478,0,2.698,0,2.967v20.138
		c0,0.27,0.219,0.491,0.492,0.491h15.461c1.252,1.073,2.879,1.722,4.656,1.722c3.969,0,7.186-3.216,7.186-7.183
		C27.795,15.5,26.369,13.202,24.256,11.952z M10.988,10.297C8.332,7.642,5.761,17.91,5.761,17.91H2.246V4.705h20.172v6.485
		c-0.578-0.149-1.182-0.238-1.809-0.238c-3.037,0-5.629,1.89-6.678,4.556C13.371,13.869,12.434,11.744,10.988,10.297z
		 M20.609,23.726c-3.086,0-5.59-2.503-5.59-5.591c0-3.086,2.504-5.59,5.59-5.59c3.088,0,5.592,2.504,5.592,5.59
		C26.201,21.223,23.697,23.726,20.609,23.726z"/>
	<rect x="16.252" y="16.868" width="8.709" height="2.708"/>
	<g>
	</g>
	<g>
	</g>
	<g>
	</g>
	<g>
	</g>
	<g>
	</g>
	<g>
	</g>
	<g>
	</g>
	<g>
	</g>
	<g>
	</g>
	<g>
	</g>
	<g>
	</g>
	<g>
	</g>
	<g>
	</g>
	<g>
	</g>
	<g>
	</g>
</g>
<g>
</g>
<g>
</g>
<g>
</g>
<g>
</g>
<g>
</g>
<g>
</g>
<g>
</g>
<g>
</g>
<g>
</g>
<g>
</g>
<g>
</g>
<g>
</g>
<g>
</g>
<g>
</g>
<g>
</g>
</svg>
