<?xml version="1.0" encoding="utf-8"?>
<!-- Generator: Adobe Illustrator 21.0.2, SVG Export Plug-In . SVG Version: 6.00 Build 0)  -->
<svg version="1.1" id="Layer_1_copy_4" xmlns="http://www.w3.org/2000/svg" xmlns:xlink="http://www.w3.org/1999/xlink" x="0px"
	 y="0px" viewBox="0 0 508 222.5" style="enable-background:new 0 0 508 222.5;" xml:space="preserve">
<style type="text/css">
	.st0{opacity:0.7;}
	.st1{fill:#E11D35;}
</style>
<g>
	<path d="M80.7,153.8c-5.5,7.3-14.3,10.4-22.4,10.4c-20.9,0-33.3-17-33.3-35.3c0-20.4,11.2-38,33.3-38c15.2,0,27.5,6.9,30.1,23.2H79
		c-1.9-10.6-10.3-15.4-20.8-15.4c-17,0-24,14.8-24,29.7c0,14.6,8.4,27.9,24,27.9c14.5,0,22.9-10,22.4-22.8H58.3v-7.8H89v36.9h-5.9
		L80.7,153.8z"/>
	<path d="M101.1,111.8h7.8v10.7h0.2c4-8.2,9.6-12.2,18.6-11.9v8.8c-13.4,0-18.3,7.5-18.3,20.5v22.5h-8.3V111.8z"/>
	<path d="M155.8,110.7c16.1,0,24.6,11.7,24.6,26.6c0,14.8-8.5,26.5-24.6,26.5s-24.6-11.7-24.6-26.5
		C131.2,122.3,139.8,110.7,155.8,110.7z M155.8,156.3c8.7,0,15.8-6.9,15.8-19.1s-7.1-19.2-15.8-19.2s-15.8,7-15.8,19.2
		S147.1,156.3,155.8,156.3z"/>
	<path d="M232.2,162.5h-7.8v-8h-0.2c-3.5,6.3-9.1,9.2-16.5,9.2c-13.3,0-17.4-7.6-17.4-18.5v-33.3h8.3v34.3c0,6.3,3.9,10.2,10.3,10.2
		c10.1,0,15-6.8,15-15.9v-28.6h8.3L232.2,162.5L232.2,162.5z"/>
	<path d="M245,111.8h8.3v6.9h0.2c2.7-5.6,9.1-8,16.2-8c15.6,0,23.3,12.3,23.3,26.7c0,14.4-7.6,26.4-23.1,26.4
		c-5.1,0-12.7-2-16.4-7.9h-0.2v26.2H245V111.8z M268.6,118c-11.3,0-15.5,9.7-15.5,19.1c0,9.9,4.5,19.2,16,19.2
		c11.4,0,15.2-9.7,15.2-19.6C284.2,127.2,279.3,118,268.6,118z"/>
	<path d="M346.1,146.4c-2.3,11.3-10.2,17.2-21.7,17.2c-16.2,0-23.8-11.3-24.3-26.7c0-15.3,10-26.4,23.8-26.4
		c17.9,0,23.4,16.8,22.9,29h-37.9c-0.3,8.8,4.7,16.7,15.8,16.7c7,0,11.7-3.2,13.1-9.9L346.1,146.4L346.1,146.4z M338,132.3
		c-0.5-7.9-6.3-14.3-14.6-14.3c-8.6,0-14,6.5-14.5,14.3H338z"/>
</g>
<g class="st0">
	<path d="M273.3,86.3c-1.5,1.9-3.8,2.8-6,2.8c-5.6,0-8.9-4.5-8.9-9.4c0-5.4,3-10.1,8.9-10.1c4,0,7.3,1.8,8,6.2h-2.5
		c-0.5-2.8-2.7-4.1-5.5-4.1c-4.5,0-6.4,3.9-6.4,7.9c0,3.9,2.2,7.4,6.4,7.4c3.9,0,6.1-2.7,6-6.1h-5.9v-2.1h8.2v9.8H274L273.3,86.3z"
		/>
	<path d="M278.8,75.1h2.1v2.8h0.1c1.1-2.2,2.6-3.2,5-3.2V77c-3.6,0-4.9,2-4.9,5.5v6h-2.2V75.1H278.8z"/>
	<path d="M293.3,74.8c4.3,0,6.5,3.1,6.5,7.1c0,3.9-2.3,7-6.5,7c-4.3,0-6.5-3.1-6.5-7C286.8,77.9,289.1,74.8,293.3,74.8z M293.3,87
		c2.3,0,4.2-1.8,4.2-5.1s-1.9-5.1-4.2-5.1c-2.3,0-4.2,1.9-4.2,5.1S291,87,293.3,87z"/>
	<path d="M313.7,88.6h-2.1v-2.1h-0.1c-0.9,1.7-2.4,2.5-4.4,2.5c-3.5,0-4.6-2-4.6-4.9v-8.9h2.2v9.1c0,1.7,1,2.7,2.7,2.7
		c2.7,0,4-1.8,4-4.2v-7.6h2.2L313.7,88.6L313.7,88.6z"/>
	<path d="M317.1,75.1h2.2v1.8h0.1c0.7-1.5,2.4-2.1,4.3-2.1c4.1,0,6.2,3.3,6.2,7.1s-2,7-6.2,7c-1.4,0-3.4-0.5-4.4-2.1h-0.1v7H317
		V75.1H317.1z M323.3,76.8c-3,0-4.1,2.6-4.1,5.1c0,2.6,1.2,5.1,4.3,5.1c3,0,4-2.6,4-5.2C327.5,79.2,326.2,76.8,323.3,76.8z"/>
</g>
<g>
	<path class="st1" d="M413,126.3V88.5h-10.8v38.7c0,14.5-10.2,15-17.8,16.6l2.8,8.9C398.7,149.5,413,145.2,413,126.3z"/>
	<polygon class="st1" points="451.4,143.8 471.6,88.5 460.1,88.5 446.7,130.5 432.6,88.5 420.7,88.5 441.5,143.8 	"/>
	<path class="st1" d="M413.3,20.6c-40,0-72.5,32.5-72.5,72.5s32.5,72.5,72.5,72.5s72.5-32.5,72.5-72.5
		C485.8,53.2,453.2,20.6,413.3,20.6z M374.4,122.1c11.1,0,18.6-4.5,18.6-17.1s-8.3-16.6-19.6-16.6H354v36.8
		c-5.2-9.6-8.2-20.5-8.2-32.2c0-37.2,30.2-67.4,67.4-67.4c22.1,0,41.7,10.6,54,27.1c8.3,11.3,13.3,25.2,13.3,40.2
		c0,29.1-18.5,54-44.3,63.5c-7.2,2.6-14.9,4-22.9,4c-19,0-36.2-7.9-48.5-20.6V122h9.6V122.1z M364.8,113.9V96.8h8.5
		c4.4,0,8.8,0.7,8.8,8.3c0,6.8-3.8,8.8-8.4,8.8L364.8,113.9L364.8,113.9z"/>
</g>
</svg>
