<?xml version="1.0" encoding="iso-8859-1"?>
<!-- Generator: Adobe Illustrator 18.0.0, SVG Export Plug-In . SVG Version: 6.00 Build 0)  -->
<!DOCTYPE svg PUBLIC "-//W3C//DTD SVG 1.1//EN" "http://www.w3.org/Graphics/SVG/1.1/DTD/svg11.dtd">
<svg version="1.1" id="Capa_1" xmlns="http://www.w3.org/2000/svg" xmlns:xlink="http://www.w3.org/1999/xlink" x="0px" y="0px"
	 viewBox="0 0 297 297" style="enable-background:new 0 0 297 297;" xml:space="preserve">
<g>
	<path d="M146.705,202.143v33.841c0,5.663,4.592,10.255,10.255,10.255h101.524c5.663,0,10.255-4.592,10.255-10.255v-33.841
		c0-5.664-4.592-10.256-10.255-10.256H156.96C151.297,191.887,146.705,196.479,146.705,202.143z"/>
	<path d="M156.96,260.595c-13.57,0-24.611-11.041-24.611-24.611v-33.841c0-13.571,11.041-24.612,24.611-24.612h77.067
		c9.46-21.24,15.74-43.916,15.74-66.733C249.768,49.703,200.084,0,139.015,0C77.944,0,28.261,49.703,28.261,110.797
		c0,91.026,99.73,179.905,103.976,183.645c1.937,1.705,4.357,2.559,6.778,2.559c2.42,0,4.841-0.853,6.777-2.559
		c1.543-1.359,15.705-13.975,33.105-33.847H156.96z M108.249,110.797c0-17.15,13.802-31.104,30.766-31.104
		c16.963,0,30.765,13.953,30.765,31.104c0,17.151-13.802,31.104-30.765,31.104C122.051,141.901,108.249,127.948,108.249,110.797z"/>
</g>
<g>
</g>
<g>
</g>
<g>
</g>
<g>
</g>
<g>
</g>
<g>
</g>
<g>
</g>
<g>
</g>
<g>
</g>
<g>
</g>
<g>
</g>
<g>
</g>
<g>
</g>
<g>
</g>
<g>
</g>
</svg>
