<?xml version="1.0" encoding="utf-8"?>
<!-- Generator: Adobe Illustrator 21.0.2, SVG Export Plug-In . SVG Version: 6.00 Build 0)  -->
<svg version="1.1" id="Layer_1" xmlns="http://www.w3.org/2000/svg" xmlns:xlink="http://www.w3.org/1999/xlink" x="0px" y="0px"
	 viewBox="0 0 90 90.8" style="enable-background:new 0 0 90 90.8;" xml:space="preserve">
<style type="text/css">
	.st0{fill:none;stroke:#000000;stroke-miterlimit:10;}
	.st1{fill:#E11D35;}
</style>
<path class="st0" d="M-1655,1023"/>
<line class="st0" x1="-1654" y1="1023" x2="-1654" y2="1023"/>
<path class="st1" d="M73.5,39.9c-0.5-0.5-1.1-0.7-1.8-0.6h-6.4c-0.4-1.6-1.1-3.1-1.9-4.6l4.7-4.7c0.5-0.5,0.7-1.1,0.7-1.8
	s-0.3-1.3-0.7-1.8l-4-4c-1-1-2.6-1-3.6,0L55.9,27c-1.6-1-3.4-1.8-5.2-2.3v-6.5c0-1.4-1.1-2.5-2.5-2.5h-5.6c-1.4,0-2.5,1.1-2.5,2.5
	v6.3c-1.7,0.4-3.4,1-5.1,2l-4.6-4.6c-1-1-2.6-1-3.6,0l-4,4c-1,1-1,2.6,0,3.6l4.3,4.3c-1,1.6-1.8,3.3-2.3,5.1l-6.8-0.1
	c-1.4,0-2.5,1.1-2.5,2.5v5.6c0,1.4,1.1,2.5,2.5,2.5l6.4,0.1c0.4,1.7,1,3.5,1.9,5.1l-4.6,4.6C21.3,59.7,21,60.4,21,61
	c0,0.7,0.3,1.3,0.7,1.8l4,4c0.9,0.9,2.7,0.9,3.6,0l4.2-4.2c1.9,1.2,3.9,2.1,6,2.7l-0.1,6.6c0,1.4,1.1,2.5,2.5,2.5h5.6
	c0.8,0,1.5-0.3,2-0.9c0.4-0.5,0.6-1.1,0.5-1.7l0.1-6.5c2.1-0.6,4.1-1.4,5.8-2.5l4.1,4.1c0.5,0.5,1.1,0.7,1.8,0.7c0,0,0,0,0,0
	c0.7,0,1.3-0.3,1.8-0.7l4-4c1-1,1-2.6,0-3.6l-4.4-4.4c0.8-1.6,1.5-3.2,1.9-4.8h6.4c1.4,0,2.5-1.1,2.5-2.5V42
	C74.3,41.2,74,40.4,73.5,39.9z M45,57.5c-6.9,0-12.6-5.7-12.6-12.6S38.1,32.3,45,32.3c6.9,0,12.6,5.7,12.6,12.6S51.9,57.5,45,57.5z"
	/>
</svg>
