<?xml version="1.0" encoding="utf-8"?>
<!-- Generator: Adobe Illustrator 21.0.2, SVG Export Plug-In . SVG Version: 6.00 Build 0)  -->
<svg version="1.1" id="Capa_1" xmlns="http://www.w3.org/2000/svg" xmlns:xlink="http://www.w3.org/1999/xlink" x="0px" y="0px"
	 viewBox="0 0 484.5 484.5" style="enable-background:new 0 0 484.5 484.5;" xml:space="preserve">
<style type="text/css">
	.st0{fill:#E41C35;}
</style>
<g>
	<g>
		<path class="st0" d="M385.9,253.8L205.7,434c-2.1,2.1-4.4,4.1-6.8,5.9c3,0.8,6.1,1.2,9.3,1.2h169.4c20.5,0,37.2-16.7,37.2-37.2
			V252.4c-8-0.5-16.2-1.5-24.7-3.1C388.8,250.8,387.4,252.3,385.9,253.8z"/>
		<path class="st0" d="M462.1,135.8c-0.3-0.3-0.6-0.6-0.9-0.9c-16.7-16.7-41-32.1-68.6-43.6c-5-2.1-10.1-4-15.2-5.7v-0.3
			c-0.3-22.1-18.1-39.9-40.2-40.2l-108-1.6c-14.3-0.2-28.1,5.4-38.2,15.5L10.9,239.3c-14.5,14.5-14.5,38.1,0,52.6l119.8,119.8
			c14.5,14.5,38.1,14.5,52.6,0l180.3-180.3c5.2-5.2,9.1-11.3,11.8-18c18.1,5.1,35.7,7.8,51.2,7.7c38.4-0.2,51.1-17,55.3-27
			C486,184.1,489,163.2,462.1,135.8z M239,238.1c-4.2,2.3-8.5,4.8-12.8,7c-4.1,2.1-5.5,1.6-7-2.8c-3.1-8.8-8.1-16.3-15-22.5
			c-1.8-1.6-3.7-3.1-6-4c-8.2-3.2-15.4,2.1-14.4,10.9c0.5,4.4,1.9,8.6,3.6,12.7c2.9,7.1,6,14.2,8.1,21.6
			c6.8,23.6-8.2,46.8-31.9,49.1c-8.6,0.8-16.8-1-24.3-5.3c-3.3-1.9-5.8-1.7-8.3,1.1c-2.5,2.7-5.3,5.2-7.9,7.8
			c-2.3,2.3-4.8,2.4-7.1,0.1c-2.9-2.7-5.7-5.6-8.5-8.4c-2.4-2.5-2.2-5.1,0.2-7.5c1.9-1.9,3.8-3.9,5.7-5.8c4.2-4.3,4.2-4.6,0.8-9.3
			c-4.4-6-8.3-12.3-10.7-19.4c-1.9-5.5-1.4-6.9,3.6-9.7c3.7-2.1,7.4-4.2,11.2-6.2c4.4-2.3,5.7-1.8,7.2,2.9c2.5,8,6.6,15.1,11.7,21.7
			c3.3,4.3,7.4,7.5,12.4,9.5c9.4,3.7,18-2.9,17-12.9c-0.3-3.4-1.3-6.7-2.6-9.9c-3.2-8.2-7.3-16.1-9.4-24.8
			c-3.5-14-1.9-26.8,9.4-36.8c12.8-11.3,27.1-12,42.2-5c6.2,2.9,6.2,3,11-1.8c1.6-1.6,3.2-3.2,4.9-4.8c3.7-3.5,4.9-3.5,8.6,0
			c1.1,1.1,2.2,2.2,3.3,3.3c7.6,7.6,7.6,7.6,0,15.3c-5.4,5.4-5.4,5.4-0.9,11.6c3.5,4.8,6.2,9.9,8.3,15.4
			C242.5,234.2,241.9,236.5,239,238.1z M452.9,182.1c-3.4,8.1-39.7,15.2-94.8-7.8c-16.2-6.7-31.2-15.1-43.5-24.1
			c-0.4,0.5-0.9,1-1.3,1.5c-12,12-31.6,12-43.6,0s-12-31.6,0-43.6s31.6-12,43.6,0c7.2,7.2,10,17,8.7,26.3
			c11.8,8.4,26,16.1,41.1,22.4c5.4,2.2,10.5,4.2,15.5,5.9l-0.6-43.4c0.9,0.4,1.7,0.7,2.6,1.1c23.6,9.8,44.8,23.2,58.5,36.9
			c0.2,0.2,0.4,0.4,0.6,0.6C452.7,171,454,179.4,452.9,182.1z"/>
	</g>
</g>
</svg>
