<?xml version="1.0" encoding="utf-8"?>
<!-- Generator: Adobe Illustrator 21.0.1, SVG Export Plug-In . SVG Version: 6.00 Build 0)  -->
<svg version="1.1" id="Capa_1" xmlns="http://www.w3.org/2000/svg" xmlns:xlink="http://www.w3.org/1999/xlink" x="0px" y="0px"
	 viewBox="0 0 100 100" style="enable-background:new 0 0 100 100;" xml:space="preserve">
<style type="text/css">
	.st0{fill:#E41C35;}
</style>
<g>
	<path class="st0" d="M95,46c-0.9,0-4,0-4.9,0c-2.8,0-5,1.8-5,4s2.2,4,5,4c0.9,0,4,0,4.9,0c2.8,0,5-1.8,5-4S97.8,46,95,46z M50,22.5
		c-15.3,0-27.5,12.2-27.5,27.5S34.7,77.5,50,77.5c15.2,0,27.5-12.2,27.5-27.5C77.5,34.8,65.3,22.5,50,22.5z M50.5,70
		C38.9,70,30,61.1,30,50c0-11,9-20,20.5-20V70z M14.9,50c0-2.2-2.1-4-4.9-4c-0.9,0-4.1,0-5,0c-2.8,0-5,1.8-5,4s2.2,4,5,4
		c0.9,0,4.1,0,5,0C12.8,54,14.9,52.2,14.9,50z M50,15c2.2,0,4-2.2,4-5c0-0.9,0-4.1,0-5c0-2.8-1.8-5-4-5s-4,2.2-4,5c0,0.9,0,4.1,0,5
		C46,12.8,47.8,15,50,15z M50,85c-2.2,0-4,2.2-4,5c0,0.9,0,4.1,0,5c0,2.8,1.8,5,4,5s4-2.2,4-5c0-0.9,0-4.1,0-5
		C54,87.2,52.2,85,50,85z M86.8,18.8c2-2,2.3-4.8,0.7-6.4c-1.6-1.6-4.4-1.2-6.4,0.7c-0.5,0.5-3,3-3.5,3.5c-2,2-2.3,4.8-0.7,6.4
		c1.6,1.6,4.4,1.2,6.4-0.7C83.9,21.8,86.3,19.4,86.8,18.8z M16.7,77.7c-0.5,0.5-3,3-3.5,3.5c-2,2-2.3,4.8-0.7,6.4s4.4,1.2,6.4-0.7
		c0.5-0.5,3-3,3.5-3.5c2-2,2.3-4.8,0.7-6.4S18.6,75.7,16.7,77.7z M18.8,13.2c-2-2-4.8-2.3-6.4-0.7s-1.2,4.4,0.7,6.4
		c0.5,0.5,3,3,3.5,3.5c2,2,4.8,2.3,6.4,0.7s1.2-4.4-0.7-6.4C21.8,16.1,19.4,13.7,18.8,13.2z M77.7,83.3c0.5,0.5,3,3,3.5,3.5
		c2,2,4.8,2.3,6.4,0.7c1.6-1.6,1.2-4.4-0.7-6.4c-0.5-0.5-3-3-3.5-3.5c-2-2-4.8-2.3-6.4-0.7S75.7,81.4,77.7,83.3z"/>
</g>
</svg>
