<?xml version="1.0" encoding="utf-8"?>
<!-- Generator: Adobe Illustrator 21.0.2, SVG Export Plug-In . SVG Version: 6.00 Build 0)  -->
<svg version="1.1" id="Capa_1" xmlns="http://www.w3.org/2000/svg" xmlns:xlink="http://www.w3.org/1999/xlink" x="0px" y="0px"
	 viewBox="0 0 485.2 485.2" style="enable-background:new 0 0 485.2 485.2;" xml:space="preserve">
<style type="text/css">
	.st0{fill:#BBBBBC;}
</style>
<g>
	<g>
		<g>
			<polygon class="st0" points="424.6,363.9 172,363.9 65.9,121.3 0,121.3 0,91 85.7,91 191.9,333.6 424.6,333.6 			"/>
		</g>
		<path class="st0" d="M272.9,439.7c0,25.1-20.4,45.5-45.5,45.5c-25.1,0-45.5-20.4-45.5-45.5c0-25.1,20.3-45.5,45.5-45.5
			C252.6,394.2,272.9,414.6,272.9,439.7z"/>
		<path class="st0" d="M424.6,439.7c0,25.1-20.4,45.5-45.5,45.5c-25.1,0-45.5-20.4-45.5-45.5c0-25.1,20.4-45.5,45.5-45.5
			C404.2,394.2,424.6,414.6,424.6,439.7z"/>
		<g>
			<path class="st0" d="M379.1,0c-58.6,0-106.1,47.5-106.1,106.1c0,58.6,47.5,106.1,106.1,106.1c58.6,0,106.1-47.5,106.1-106.1
				C485.2,47.5,437.7,0,379.1,0z M439.7,121.3h-45.5v45.5h-30.3v-45.5h-45.5V91h45.5V45.5h30.3V91h45.5V121.3z"/>
		</g>
		<path class="st0" d="M379.1,242.6c-59.2,0-109.3-38.1-128.1-91h-99.4l60.7,151.6h212.3l35-87.5
			C436.9,232.4,409.3,242.6,379.1,242.6z"/>
	</g>
</g>
</svg>
