<?xml version="1.0" encoding="iso-8859-1"?>
<!-- Generator: Adobe Illustrator 17.1.0, SVG Export Plug-In . SVG Version: 6.00 Build 0)  -->
<!DOCTYPE svg PUBLIC "-//W3C//DTD SVG 1.1//EN" "http://www.w3.org/Graphics/SVG/1.1/DTD/svg11.dtd">
<svg version="1.1" id="Capa_1" xmlns="http://www.w3.org/2000/svg" xmlns:xlink="http://www.w3.org/1999/xlink" x="0px" y="0px"
	 viewBox="0 0 420.344 420.344" style="enable-background:new 0 0 420.344 420.344;" xml:space="preserve">
<path d="M395.175,187.257c-11.138-8.545-33.043-53.651-33.294-54.167c-6.026-11.633-21.587-21.097-34.687-21.097l-44.168,0V65.641
	c0-9.098-7.402-16.5-16.5-16.5H16.5c-9.098,0-16.5,7.402-16.5,16.5v242.188c0,7.162,6.191,12.99,13.801,12.99h8.824
	c2.521,28.201,26.274,50.384,55.124,50.384c24.794,0,45.833-16.382,52.859-38.888c7.026,22.506,28.064,38.888,52.858,38.888
	c28.85,0,52.604-22.183,55.125-50.384h39.669c2.521,28.201,26.275,50.384,55.124,50.384c28.85,0,52.604-22.183,55.125-50.384h7.092
	c13.643,0,24.742-11.098,24.742-24.74v-42.256C420.344,211.176,402.743,193.065,395.175,187.257z M77.749,336.329
	c-11.291,0-20.476-9.186-20.476-20.476c0-11.291,9.186-20.478,20.476-20.478c11.294,0,20.483,9.186,20.483,20.478
	C98.232,327.143,89.043,336.329,77.749,336.329z M183.466,336.329c-11.291,0-20.476-9.186-20.476-20.476
	c0-11.291,9.186-20.478,20.476-20.478c11.294,0,20.483,9.186,20.483,20.478C203.949,327.143,194.76,336.329,183.466,336.329z
	 M216.834,221.937H66.192v-119.69h150.642V221.937z M333.385,336.329c-11.291,0-20.477-9.186-20.477-20.476
	c0-11.291,9.186-20.478,20.477-20.478c11.294,0,20.482,9.186,20.482,20.478C353.867,327.143,344.679,336.329,333.385,336.329z
	 M372.625,208.584c-0.404,0.669-1.597,0.961-3.42,0.843l-86.179-0.005v-76.967h36.264c9.9,0,22.113,7.428,26.647,16.177
	l16.754,33.923c0.516,0.996,1.047,2.009,1.582,3.032C368.387,193.444,374.603,205.318,372.625,208.584z"/>
<g>
</g>
<g>
</g>
<g>
</g>
<g>
</g>
<g>
</g>
<g>
</g>
<g>
</g>
<g>
</g>
<g>
</g>
<g>
</g>
<g>
</g>
<g>
</g>
<g>
</g>
<g>
</g>
<g>
</g>
</svg>
