<?xml version="1.0" encoding="utf-8"?>
<!-- Generator: Adobe Illustrator 21.0.2, SVG Export Plug-In . SVG Version: 6.00 Build 0)  -->
<svg version="1.1" id="Capa_1" xmlns="http://www.w3.org/2000/svg" xmlns:xlink="http://www.w3.org/1999/xlink" x="0px" y="0px"
	 viewBox="0 0 420.3 420.3" style="enable-background:new 0 0 420.3 420.3;" xml:space="preserve">
<style type="text/css">
	.st0{fill:#FFFFFF;}
</style>
<path class="st0" d="M395.2,187.3c-11.1-8.5-33-53.7-33.3-54.2c-6-11.6-21.6-21.1-34.7-21.1H283V65.6c0-9.1-7.4-16.5-16.5-16.5h-250
	C7.4,49.1,0,56.5,0,65.6v242.2c0,7.2,6.2,13,13.8,13h8.8c2.5,28.2,26.3,50.4,55.1,50.4c24.8,0,45.8-16.4,52.9-38.9
	c7,22.5,28.1,38.9,52.9,38.9c28.9,0,52.6-22.2,55.1-50.4h39.7c2.5,28.2,26.3,50.4,55.1,50.4c28.9,0,52.6-22.2,55.1-50.4h7.1
	c13.6,0,24.7-11.1,24.7-24.7v-42.3C420.3,211.2,402.7,193.1,395.2,187.3z M77.7,336.3c-11.3,0-20.5-9.2-20.5-20.5
	c0-11.3,9.2-20.5,20.5-20.5c11.3,0,20.5,9.2,20.5,20.5C98.2,327.1,89,336.3,77.7,336.3z M183.5,336.3c-11.3,0-20.5-9.2-20.5-20.5
	c0-11.3,9.2-20.5,20.5-20.5c11.3,0,20.5,9.2,20.5,20.5C203.9,327.1,194.8,336.3,183.5,336.3z M216.8,221.9H66.2V102.2h150.6V221.9z
	 M333.4,336.3c-11.3,0-20.5-9.2-20.5-20.5c0-11.3,9.2-20.5,20.5-20.5c11.3,0,20.5,9.2,20.5,20.5
	C353.9,327.1,344.7,336.3,333.4,336.3z M372.6,208.6c-0.4,0.7-1.6,1-3.4,0.8l-86.2,0v-77h36.3c9.9,0,22.1,7.4,26.6,16.2l16.8,33.9
	c0.5,1,1,2,1.6,3C368.4,193.4,374.6,205.3,372.6,208.6z"/>
</svg>
