<?xml version="1.0" encoding="utf-8"?>
<!-- Generator: Adobe Illustrator 21.0.1, SVG Export Plug-In . SVG Version: 6.00 Build 0)  -->
<svg version="1.1" id="Capa_1" xmlns="http://www.w3.org/2000/svg" xmlns:xlink="http://www.w3.org/1999/xlink" x="0px" y="0px"
	 viewBox="0 0 22.6 29.4" style="enable-background:new 0 0 22.6 29.4;" xml:space="preserve">
<style type="text/css">
	.st0{fill:#E41C35;}
</style>
<g>
	<g>
		<path class="st0" d="M2.4,12.4h17.7c0.3,0,0.6-0.1,0.9-0.4c0.2-0.2,0.4-0.5,0.4-0.9s-0.1-0.6-0.4-0.9l-8.8-8.8
			C11.9,1.2,11.6,1,11.3,1c-0.3,0-0.6,0.1-0.9,0.4l-8.8,8.8c-0.2,0.2-0.4,0.5-0.4,0.9c0,0.3,0.1,0.6,0.4,0.9
			C1.8,12.3,2.1,12.4,2.4,12.4z"/>
		<path class="st0" d="M20.1,17.4H2.4c-0.3,0-0.6,0.1-0.9,0.4s-0.4,0.5-0.4,0.9c0,0.3,0.1,0.6,0.4,0.9l8.8,8.8
			c0.2,0.2,0.5,0.4,0.9,0.4s0.6-0.1,0.9-0.4l8.8-8.8c0.2-0.2,0.4-0.5,0.4-0.9s-0.1-0.6-0.4-0.9C20.7,17.6,20.5,17.4,20.1,17.4z"/>
	</g>
</g>
</svg>
