<?xml version="1.0" encoding="utf-8"?>
<!-- Generator: Adobe Illustrator 21.0.2, SVG Export Plug-In . SVG Version: 6.00 Build 0)  -->
<svg version="1.1" id="Capa_1" xmlns="http://www.w3.org/2000/svg" xmlns:xlink="http://www.w3.org/1999/xlink" x="0px" y="0px"
	 viewBox="0 0 21.6 21.6" style="enable-background:new 0 0 21.6 21.6;" xml:space="preserve">
<style type="text/css">
	.st0{fill:#E41C35;}
</style>
<g>
	<path class="st0" d="M18.6,8.4l-0.5-1.3c0,0,1.3-2.9,1.2-3l-1.7-1.6c-0.1-0.1-3,1.2-3,1.2l-1.3-0.5c0,0-1.2-2.9-1.3-2.9H9.6
		c-0.2,0-1.2,2.9-1.2,2.9L7,3.7c0,0-2.9-1.2-3-1.1L2.3,4.2C2.2,4.3,3.5,7.1,3.5,7.1L3,8.4c0,0-3,1.1-3,1.3V12c0,0.2,3,1.2,3,1.2
		l0.5,1.3c0,0-1.3,2.9-1.2,3L4,19.1c0.1,0.1,3-1.2,3-1.2l1.3,0.5c0,0,1.2,2.9,1.3,2.9H12c0.2,0,1.2-2.9,1.2-2.9l1.3-0.5
		c0,0,2.9,1.2,3,1.1l1.7-1.6c0.1-0.1-1.2-2.9-1.2-2.9l0.5-1.3c0,0,3-1.1,3-1.3V9.6C21.6,9.4,18.6,8.4,18.6,8.4z M14.3,10.8
		c0,1.9-1.6,3.4-3.5,3.4c-1.9,0-3.5-1.5-3.5-3.4s1.6-3.4,3.5-3.4C12.7,7.4,14.3,8.9,14.3,10.8z"/>
</g>
</svg>
