<?xml version="1.0" encoding="utf-8"?>
<!-- Generator: Adobe Illustrator 21.0.1, SVG Export Plug-In . SVG Version: 6.00 Build 0)  -->
<svg version="1.1" id="Layer_1_copy_4" xmlns="http://www.w3.org/2000/svg" xmlns:xlink="http://www.w3.org/1999/xlink" x="0px"
	 y="0px" viewBox="0 0 131.5 47" style="enable-background:new 0 0 131.5 47;" xml:space="preserve">
<style type="text/css">
	.st0{opacity:0.7;}
	.st1{fill:#E11D35;}
</style>
<g>
	<path d="M20.3,36.8c-1.4,1.9-3.7,2.7-5.8,2.7c-5.4,0-8.6-4.4-8.6-9.1c0-5.3,2.9-9.8,8.6-9.8c3.9,0,7.1,1.8,7.8,6h-2.4
		c-0.5-2.7-2.7-4-5.4-4c-4.4,0-6.2,3.8-6.2,7.7c0,3.8,2.2,7.2,6.2,7.2c3.7,0,5.9-2.6,5.8-5.9h-5.7v-2h7.9v9.5H21L20.3,36.8z"/>
	<path d="M25.6,26h2v2.8h0.1c1-2.1,2.5-3.1,4.8-3.1v2.3c-3.5,0-4.7,1.9-4.7,5.3V39h-2.1C25.6,39,25.6,26,25.6,26z"/>
	<path d="M39.7,25.7c4.1,0,6.3,3,6.3,6.9c0,3.8-2.2,6.8-6.3,6.8s-6.3-3-6.3-6.8C33.4,28.7,35.6,25.7,39.7,25.7z M39.7,37.5
		c2.2,0,4.1-1.8,4.1-4.9s-1.8-4.9-4.1-4.9s-4.1,1.8-4.1,4.9C35.6,35.7,37.5,37.5,39.7,37.5z"/>
	<path d="M59.4,39.1h-2V37h-0.1c-0.9,1.6-2.3,2.4-4.3,2.4c-3.4,0-4.5-2-4.5-4.8V26h2.1v8.8c0,1.6,1,2.6,2.7,2.6
		c2.6,0,3.9-1.8,3.9-4.1V26h2.1L59.4,39.1L59.4,39.1z"/>
	<path d="M62.7,26h2.1v1.8h0.1c0.7-1.4,2.3-2.1,4.2-2.1c4,0,6,3.2,6,6.9s-2,6.8-6,6.8c-1.3,0-3.3-0.5-4.2-2h-0.1v6.7h-2.1V26z
		 M68.7,27.6c-2.9,0-4,2.5-4,4.9c0,2.6,1.2,4.9,4.1,4.9c2.9,0,3.9-2.5,3.9-5C72.8,30,71.5,27.6,68.7,27.6z"/>
	<path d="M88.7,34.9c-0.6,2.9-2.6,4.4-5.6,4.4c-4.2,0-6.1-2.9-6.3-6.9c0-3.9,2.6-6.8,6.1-6.8c4.6,0,6,4.3,5.9,7.5h-9.8
		c-0.1,2.3,1.2,4.3,4.1,4.3c1.8,0,3-0.8,3.4-2.6L88.7,34.9L88.7,34.9z M86.6,31.3c-0.1-2-1.6-3.7-3.8-3.7c-2.2,0-3.6,1.7-3.7,3.7
		H86.6z"/>
</g>
<g class="st0">
	<path d="M70,19.4c-0.4,0.5-1,0.7-1.5,0.7c-1.4,0-2.3-1.2-2.3-2.4c0-1.4,0.8-2.6,2.3-2.6c1,0,1.9,0.5,2.1,1.6h-0.6
		c-0.1-0.7-0.7-1.1-1.4-1.1c-1.2,0-1.6,1-1.6,2c0,1,0.6,1.9,1.6,1.9c1,0,1.6-0.7,1.5-1.6h-1.5v-0.5h2.1V20h-0.4L70,19.4z"/>
	<path d="M71.4,16.5h0.5v0.7h0c0.3-0.6,0.7-0.8,1.3-0.8V17c-0.9,0-1.3,0.5-1.3,1.4V20h-0.6L71.4,16.5L71.4,16.5z"/>
	<path d="M75.1,16.5c1.1,0,1.7,0.8,1.7,1.8c0,1-0.6,1.8-1.7,1.8c-1.1,0-1.7-0.8-1.7-1.8C73.4,17.3,74,16.5,75.1,16.5z M75.1,19.6
		c0.6,0,1.1-0.5,1.1-1.3c0-0.9-0.5-1.3-1.1-1.3c-0.6,0-1.1,0.5-1.1,1.3C74,19.1,74.5,19.6,75.1,19.6z"/>
	<path d="M80.4,20h-0.5v-0.5h0c-0.2,0.4-0.6,0.6-1.1,0.6c-0.9,0-1.2-0.5-1.2-1.3v-2.3H78v2.3c0,0.4,0.3,0.7,0.7,0.7
		c0.7,0,1-0.5,1-1.1v-2h0.6L80.4,20L80.4,20z"/>
	<path d="M81.2,16.5h0.6V17h0c0.2-0.4,0.6-0.5,1.1-0.5c1.1,0,1.6,0.9,1.6,1.8s-0.5,1.8-1.6,1.8c-0.4,0-0.9-0.1-1.1-0.5h0v1.8h-0.6
		L81.2,16.5L81.2,16.5z M82.8,17c-0.8,0-1.1,0.7-1.1,1.3c0,0.7,0.3,1.3,1.1,1.3c0.8,0,1-0.7,1-1.3C83.9,17.6,83.6,17,82.8,17z"/>
</g>
<g>
	<path class="st1" d="M105.9,29.7V20h-2.8v10c0,3.7-2.6,3.9-4.6,4.3l0.7,2.3C102.3,35.7,105.9,34.6,105.9,29.7z"/>
	<polygon class="st1" points="115.8,34.2 121,20 118.1,20 114.6,30.8 111,20 107.9,20 113.3,34.2 	"/>
	<path class="st1" d="M106,2.5c-10.3,0-18.7,8.4-18.7,18.7s8.4,18.7,18.7,18.7s18.7-8.4,18.7-18.7C124.7,10.9,116.3,2.5,106,2.5z
		 M96,28.6c2.9,0,4.8-1.2,4.8-4.4s-2.1-4.3-5-4.3h-5v9.5c-1.3-2.5-2.1-5.3-2.1-8.3c0-9.6,7.8-17.4,17.4-17.4c5.7,0,10.7,2.7,13.9,7
		c2.1,2.9,3.4,6.5,3.4,10.4c0,7.5-4.8,13.9-11.4,16.4c-1.9,0.7-3.8,1-5.9,1c-4.9,0-9.3-2-12.5-5.3v-4.6L96,28.6L96,28.6z M93.5,26.5
		v-4.4h2.2c1.1,0,2.3,0.2,2.3,2.1c0,1.8-1,2.3-2.2,2.3L93.5,26.5L93.5,26.5z"/>
</g>
</svg>
