<?xml version="1.0" encoding="utf-8"?>
<!-- Generator: Adobe Illustrator 21.0.2, SVG Export Plug-In . SVG Version: 6.00 Build 0)  -->
<svg version="1.1" id="Layer_1_copy_4" xmlns="http://www.w3.org/2000/svg" xmlns:xlink="http://www.w3.org/1999/xlink" x="0px"
	 y="0px" viewBox="0 0 476 186" style="enable-background:new 0 0 476 186;" xml:space="preserve">
<style type="text/css">
	.st0{opacity:0.7;}
	.st1{fill:#E11D35;}
</style>
<g>
	<path d="M61.7,142.8c-5.5,7.3-14.3,10.4-22.4,10.4c-20.9,0-33.3-17-33.3-35.3c0-20.4,11.2-38,33.3-38c15.2,0,27.5,6.9,30.1,23.2H60
		c-1.9-10.6-10.3-15.4-20.8-15.4c-17,0-24,14.8-24,29.7c0,14.6,8.4,27.9,24,27.9c14.5,0,22.9-10,22.4-22.8H39.3v-7.8H70v36.9h-5.9
		L61.7,142.8z"/>
	<path d="M82.1,100.8h7.8v10.7h0.2c4-8.2,9.6-12.2,18.6-11.9v8.8c-13.4,0-18.3,7.5-18.3,20.5v22.5h-8.3V100.8z"/>
	<path d="M136.8,99.7c16.1,0,24.6,11.7,24.6,26.6c0,14.8-8.5,26.5-24.6,26.5s-24.6-11.7-24.6-26.5
		C112.2,111.3,120.8,99.7,136.8,99.7z M136.8,145.3c8.7,0,15.8-6.9,15.8-19.1s-7.1-19.2-15.8-19.2s-15.8,7-15.8,19.2
		S128.1,145.3,136.8,145.3z"/>
	<path d="M213.2,151.5h-7.8v-8h-0.2c-3.5,6.3-9.1,9.2-16.5,9.2c-13.3,0-17.4-7.6-17.4-18.5v-33.3h8.3v34.3c0,6.3,3.9,10.2,10.3,10.2
		c10.1,0,15-6.8,15-15.9v-28.6h8.3L213.2,151.5L213.2,151.5z"/>
	<path d="M226,100.8h8.3v6.9h0.2c2.7-5.6,9.1-8,16.2-8c15.6,0,23.3,12.3,23.3,26.7c0,14.4-7.6,26.4-23.1,26.4
		c-5.1,0-12.7-2-16.4-7.9h-0.2v26.2H226V100.8z M249.6,107c-11.3,0-15.5,9.7-15.5,19.1c0,9.9,4.5,19.2,16,19.2
		c11.4,0,15.2-9.7,15.2-19.6C265.2,116.2,260.3,107,249.6,107z"/>
	<path d="M327.1,135.4c-2.3,11.3-10.2,17.2-21.7,17.2c-16.2,0-23.8-11.3-24.3-26.7c0-15.3,10-26.4,23.8-26.4
		c17.9,0,23.4,16.8,22.9,29h-37.9c-0.3,8.8,4.7,16.7,15.8,16.7c7,0,11.7-3.2,13.1-9.9L327.1,135.4L327.1,135.4z M319,121.3
		c-0.5-7.9-6.3-14.3-14.6-14.3c-8.6,0-14,6.5-14.5,14.3H319z"/>
</g>
<g class="st0">
	<path d="M254.3,75.3c-1.5,1.9-3.8,2.8-6,2.8c-5.6,0-8.9-4.5-8.9-9.4c0-5.4,3-10.1,8.9-10.1c4,0,7.3,1.8,8,6.2h-2.5
		c-0.5-2.8-2.7-4.1-5.5-4.1c-4.5,0-6.4,3.9-6.4,7.9c0,3.9,2.2,7.4,6.4,7.4c3.9,0,6.1-2.7,6-6.1h-5.9v-2.1h8.2v9.8H255L254.3,75.3z"
		/>
	<path d="M259.8,64.1h2.1v2.8h0.1c1.1-2.2,2.6-3.2,5-3.2V66c-3.6,0-4.9,2-4.9,5.5v6h-2.2V64.1H259.8z"/>
	<path d="M274.3,63.8c4.3,0,6.5,3.1,6.5,7.1c0,3.9-2.3,7-6.5,7c-4.3,0-6.5-3.1-6.5-7C267.8,66.9,270.1,63.8,274.3,63.8z M274.3,76
		c2.3,0,4.2-1.8,4.2-5.1s-1.9-5.1-4.2-5.1c-2.3,0-4.2,1.9-4.2,5.1S272,76,274.3,76z"/>
	<path d="M294.7,77.6h-2.1v-2.1h-0.1c-0.9,1.7-2.4,2.5-4.4,2.5c-3.5,0-4.6-2-4.6-4.9v-8.9h2.2v9.1c0,1.7,1,2.7,2.7,2.7
		c2.7,0,4-1.8,4-4.2v-7.6h2.2L294.7,77.6L294.7,77.6z"/>
	<path d="M298.1,64.1h2.2v1.8h0.1c0.7-1.5,2.4-2.1,4.3-2.1c4.1,0,6.2,3.3,6.2,7.1s-2,7-6.2,7c-1.4,0-3.4-0.5-4.4-2.1h-0.1v7H298
		V64.1H298.1z M304.3,65.8c-3,0-4.1,2.6-4.1,5.1c0,2.6,1.2,5.1,4.3,5.1c3,0,4-2.6,4-5.2C308.5,68.2,307.2,65.8,304.3,65.8z"/>
</g>
<g>
	<path class="st1" d="M394,115.3V77.5h-10.8v38.7c0,14.5-10.2,15-17.8,16.6l2.8,8.9C379.7,138.5,394,134.2,394,115.3z"/>
	<polygon class="st1" points="432.4,132.8 452.6,77.5 441.1,77.5 427.7,119.5 413.6,77.5 401.7,77.5 422.5,132.8 	"/>
	<path class="st1" d="M394.3,9.6c-40,0-72.5,32.5-72.5,72.5s32.5,72.5,72.5,72.5s72.5-32.5,72.5-72.5
		C466.8,42.2,434.2,9.6,394.3,9.6z M355.4,111.1c11.1,0,18.6-4.5,18.6-17.1s-8.3-16.6-19.6-16.6H335v36.8
		c-5.2-9.6-8.2-20.5-8.2-32.2c0-37.2,30.2-67.4,67.4-67.4c22.1,0,41.7,10.6,54,27.1c8.3,11.3,13.3,25.2,13.3,40.2
		c0,29.1-18.5,54-44.3,63.5c-7.2,2.6-14.9,4-22.9,4c-19,0-36.2-7.9-48.5-20.6V111h9.6V111.1z M345.8,102.9V85.8h8.5
		c4.4,0,8.8,0.7,8.8,8.3c0,6.8-3.8,8.8-8.4,8.8L345.8,102.9L345.8,102.9z"/>
</g>
</svg>
