<?xml version="1.0" encoding="utf-8"?>
<!-- Generator: Adobe Illustrator 21.0.2, SVG Export Plug-In . SVG Version: 6.00 Build 0)  -->
<svg version="1.1" id="Capa_1" xmlns="http://www.w3.org/2000/svg" xmlns:xlink="http://www.w3.org/1999/xlink" x="0px" y="0px"
	 viewBox="0 0 283.5 283.5" style="enable-background:new 0 0 283.5 283.5;" xml:space="preserve">
<style type="text/css">
	.st0{fill:#E41C35;}
</style>
<path class="st0" d="M200.1,157.3c-2.1-2.1-4.9-3.3-7.9-3.3s-5.8,1.2-7.9,3.3l-9.7,9.7l-14.2-14.2l43.5-43.5c7,3,14.6,4.6,22.5,4.6
	l0,0c15.2,0,29.6-5.9,40.3-16.7c14.7-14.7,20.2-36.3,14.3-56.3c-0.3-1.2-1.3-2.1-2.4-2.4c-1.2-0.3-2.4,0-3.3,0.9l-35.9,36
	c-2.2-0.9-7.6-3.8-17.6-13.9c-10-10-13-15.4-13.9-17.6l35.9-36c0.9-0.9,1.2-2.1,0.9-3.3s-1.2-2.1-2.4-2.4C237.2,0.8,231.9,0,226.5,0
	c-15.2,0-29.6,5.9-40.3,16.7c-16.9,16.9-20.9,41.9-12,62.7L130.7,123L86.1,78.4c0-0.1-0.1-0.2-0.1-0.2L65.7,43.3
	c-0.4-0.6-0.8-1.1-1.4-1.5L29.9,17.9c-1.9-1.3-4.5-1.1-6.1,0.5L8.5,33.8C6.9,35.4,6.6,38,8,39.9l23.8,34.3c0.4,0.6,0.9,1.1,1.5,1.4
	L68.2,96c0.1,0,0.2,0.1,0.2,0.1l44.5,44.5l-33.5,33.5c-7-3-14.6-4.6-22.5-4.6c-15.2,0-29.6,5.9-40.3,16.7
	C1.9,201-3.6,222.6,2.3,242.6c0.3,1.2,1.3,2.1,2.4,2.4c1.2,0.3,2.4,0,3.3-0.9l35.9-36c2.2,0.9,7.6,3.9,17.6,13.9s13,15.4,13.9,17.6
	l-35.9,36c-0.9,0.9-1.2,2.1-0.9,3.3c0.3,1.2,1.2,2.1,2.4,2.4c5.2,1.5,10.5,2.3,15.9,2.3c15.2,0,29.6-5.9,40.3-16.7
	c10.7-10.8,16.6-25.1,16.6-40.3c0-7.8-1.6-15.4-4.6-22.4l33.5-33.5l14.2,14.2l-9.7,9.7c-2.1,2.1-3.3,4.9-3.3,7.9s1.2,5.8,3.3,7.9
	l68.4,68.4c2.1,2.1,4.9,3.3,7.9,3.3s5.8-1.2,7.9-3.3l37-37c2.1-2.1,3.3-4.9,3.3-7.9s-1.2-5.8-3.3-7.9L200.1,157.3z M224.3,254.2
	c-2.4,2.4-6.4,2.4-8.8,0l-43.9-43.9c-2.4-2.4-2.4-6.4,0-8.8c2.4-2.4,6.4-2.4,8.8,0l43.9,43.9C226.8,247.8,226.8,251.7,224.3,254.2z
	 M244.2,234.3c-2.4,2.4-6.4,2.4-8.8,0l-43.9-43.9c-2.4-2.4-2.4-6.4,0-8.8c2.4-2.4,6.4-2.4,8.8,0l43.9,43.9
	C246.6,227.9,246.6,231.9,244.2,234.3z"/>
</svg>
