<?xml version="1.0" encoding="utf-8"?>
<!-- Generator: Adobe Illustrator 21.0.1, SVG Export Plug-In . SVG Version: 6.00 Build 0)  -->
<svg version="1.1" id="Capa_1" xmlns="http://www.w3.org/2000/svg" xmlns:xlink="http://www.w3.org/1999/xlink" x="0px" y="0px"
	 viewBox="0 0 405.1 405.1" style="enable-background:new 0 0 405.1 405.1;" xml:space="preserve">
<style type="text/css">
	.st0{fill:#FFFFFF;}
</style>
<g>
	<path class="st0" d="M202.5,0C90.7,0,0,90.7,0,202.5c0,111.9,90.7,202.5,202.5,202.5c111.9,0,202.5-90.7,202.5-202.5
		S314.4,0,202.5,0z M243.2,312.2c0,8.3-6.7,15-15,15h-27.6c-8.3,0-15-6.7-15-15V143.8l-17.1,9.2c-4.1,2.2-8.9,2.4-13.2,0.5
		c-4.2-1.9-7.4-5.6-8.5-10l-5.5-21.5c-1.7-6.7,1.4-13.7,7.5-16.9l47.6-25.5c2.2-1.2,4.6-1.8,7.1-1.8h24.7c8.3,0,15,6.7,15,15V312.2z
		"/>
</g>
</svg>
