<?xml version="1.0" encoding="utf-8"?>
<!-- Generator: Adobe Illustrator 21.0.2, SVG Export Plug-In . SVG Version: 6.00 Build 0)  -->
<svg version="1.1" id="Capa_1" xmlns="http://www.w3.org/2000/svg" xmlns:xlink="http://www.w3.org/1999/xlink" x="0px" y="0px"
	 viewBox="0 0 60 60" style="enable-background:new 0 0 60 60;" xml:space="preserve">
<style type="text/css">
	.st0{fill:#BBBBBC;}
</style>
<g>
	<path class="st0" d="M60,4.3c0-2.2-1.8-4-4-4H4c-2.2,0-4,1.8-4,4c0,1.9,1.3,3.4,3,3.9v48.6l3-3l6,6l6-6l6,6l6-6l6,6l6-6l6,6l6-6
		l3,3V8.2C58.7,7.7,60,6.2,60,4.3z M55,51.9l-1-1l-6,6l-6-6l-6,6l-6-6l-6,6l-6-6l-6,6l-6-6l-1,1V8.3v-3h50v3V51.9z M57,6V3.3H3V6
		C2.4,5.7,2,5,2,4.3c0-1.1,0.9-2,2-2h52c1.1,0,2,0.9,2,2C58,5,57.6,5.7,57,6z"/>
	<path class="st0" d="M44,40.3H29c-0.6,0-1,0.4-1,1s0.4,1,1,1h15c0.6,0,1-0.4,1-1S44.6,40.3,44,40.3z"/>
	<path class="st0" d="M48.3,40.6C48.1,40.8,48,41,48,41.3c0,0.3,0.1,0.5,0.3,0.7c0.2,0.2,0.5,0.3,0.7,0.3s0.5-0.1,0.7-0.3
		c0.2-0.2,0.3-0.5,0.3-0.7c0-0.3-0.1-0.5-0.3-0.7C49.3,40.2,48.7,40.2,48.3,40.6z"/>
	<path class="st0" d="M49,26.3H34c-0.6,0-1,0.4-1,1s0.4,1,1,1h15c0.6,0,1-0.4,1-1S49.6,26.3,49,26.3z"/>
	<path class="st0" d="M49,33.3H39c-0.6,0-1,0.4-1,1s0.4,1,1,1h10c0.6,0,1-0.4,1-1S49.6,33.3,49,33.3z"/>
	<path class="st0" d="M28,34.3c0,0.6,0.4,1,1,1h2c0.6,0,1-0.4,1-1s-0.4-1-1-1h-2C28.4,33.3,28,33.7,28,34.3z"/>
	<path class="st0" d="M45,20.3c0-0.6-0.4-1-1-1H29c-0.6,0-1,0.4-1,1s0.4,1,1,1h15C44.6,21.3,45,20.8,45,20.3z"/>
	<path class="st0" d="M48.3,19.6C48.1,19.8,48,20,48,20.3c0,0.3,0.1,0.5,0.3,0.7c0.2,0.2,0.5,0.3,0.7,0.3c0.3,0,0.5-0.1,0.7-0.3
		c0.2-0.2,0.3-0.5,0.3-0.7s-0.1-0.5-0.3-0.7C49.3,19.2,48.7,19.2,48.3,19.6z"/>
	<path class="st0" d="M30.7,28c0.2-0.2,0.3-0.4,0.3-0.7c0-0.3-0.1-0.5-0.3-0.7c-0.4-0.4-1-0.4-1.4,0C29.1,26.8,29,27,29,27.3
		c0,0.3,0.1,0.5,0.3,0.7c0.2,0.2,0.5,0.3,0.7,0.3C30.3,28.3,30.5,28.2,30.7,28z"/>
	<path class="st0" d="M35.7,35c0.2-0.2,0.3-0.4,0.3-0.7c0-0.3-0.1-0.5-0.3-0.7c-0.4-0.4-1-0.4-1.4,0C34.1,33.8,34,34,34,34.3
		s0.1,0.5,0.3,0.7c0.2,0.2,0.5,0.3,0.7,0.3S35.5,35.2,35.7,35z"/>
	<path class="st0" d="M17,21.4v-1.1c0-0.6-0.4-1-1-1s-1,0.4-1,1v1.1c-1.1,0.2-2.1,0.8-2.8,1.7c-0.6,0.7-0.9,1.6-0.8,2.6
		c0.1,1,0.6,1.9,1.4,2.5l2.2,1.7v5.4c-1.2-0.4-2-1.5-2-2.8c0-0.6-0.4-1-1-1s-1,0.4-1,1c0,2.4,1.7,4.4,4,4.9v0.9c0,0.6,0.4,1,1,1
		s1-0.4,1-1v-0.9c1.1-0.2,2.1-0.8,2.8-1.7c0.6-0.7,0.9-1.6,0.8-2.6c-0.1-1-0.6-1.9-1.4-2.5L17,28.9v-5.4c1.2,0.4,2,1.5,2,2.8
		c0,0.6,0.4,1,1,1s1-0.4,1-1C21,23.9,19.3,21.9,17,21.4z M18,32.2c0.3,0.3,0.6,0.7,0.6,1.1c0,0.4-0.1,0.8-0.3,1.1
		c-0.3,0.4-0.8,0.7-1.3,0.9v-3.9L18,32.2z M14,26.6c-0.4-0.3-0.6-0.7-0.6-1.1c0-0.4,0.1-0.8,0.3-1.1c0.3-0.4,0.8-0.7,1.3-0.9v3.9
		L14,26.6z"/>
	<circle class="st0" cx="40" cy="11.3" r="1"/>
	<circle class="st0" cx="36" cy="11.3" r="1"/>
	<circle class="st0" cx="44" cy="11.3" r="1"/>
	<circle class="st0" cx="32" cy="11.3" r="1"/>
	<circle class="st0" cx="48" cy="11.3" r="1"/>
	<circle class="st0" cx="20" cy="11.3" r="1"/>
	<circle class="st0" cx="24" cy="11.3" r="1"/>
	<circle class="st0" cx="28" cy="11.3" r="1"/>
	<circle class="st0" cx="52" cy="11.3" r="1"/>
	<circle class="st0" cx="16" cy="11.3" r="1"/>
	<circle class="st0" cx="12" cy="11.3" r="1"/>
	<circle class="st0" cx="8" cy="11.3" r="1"/>
</g>
</svg>
