<?xml version="1.0" encoding="utf-8"?>
<!-- Generator: Adobe Illustrator 21.0.2, SVG Export Plug-In . SVG Version: 6.00 Build 0)  -->
<svg version="1.1" id="Capa_1" xmlns="http://www.w3.org/2000/svg" xmlns:xlink="http://www.w3.org/1999/xlink" x="0px" y="0px"
	 viewBox="0 0 60 60" style="enable-background:new 0 0 60 60;" xml:space="preserve">
<style type="text/css">
	.st0{fill:#BBBBBC;}
</style>
<g>
	<path class="st0" d="M35.5,31c-0.6,0-1,0.4-1,1v14h-30V8h30v14c0,0.6,0.4,1,1,1s1-0.4,1-1V4.4c0-2.4-2-4.4-4.4-4.4H6.9
		C4.5,0,2.5,2,2.5,4.4v51.2c0,2.4,2,4.4,4.4,4.4h25.2c2.4,0,4.4-2,4.4-4.4V32C36.5,31.4,36.1,31,35.5,31z M6.9,2h25.2
		c1.3,0,2.4,1.1,2.4,2.4V6h-30V4.4C4.5,3.1,5.6,2,6.9,2z M32.1,58H6.9c-1.3,0-2.4-1.1-2.4-2.4V48h30v7.6C34.5,56.9,33.4,58,32.1,58z
		"/>
	<path class="st0" d="M19.5,49c-2.2,0-4,1.8-4,4s1.8,4,4,4s4-1.8,4-4S21.7,49,19.5,49z M19.5,55c-1.1,0-2-0.9-2-2s0.9-2,2-2
		s2,0.9,2,2S20.6,55,19.5,55z"/>
	<path class="st0" d="M15.5,5h4c0.6,0,1-0.4,1-1s-0.4-1-1-1h-4c-0.6,0-1,0.4-1,1S14.9,5,15.5,5z"/>
	<path class="st0" d="M22.5,5h1c0.6,0,1-0.4,1-1s-0.4-1-1-1h-1c-0.6,0-1,0.4-1,1S21.9,5,22.5,5z"/>
	<path class="st0" d="M56.5,26H20.9l10.3-10.3c0.4-0.4,0.4-1,0-1.4s-1-0.4-1.4,0l-12,12c-0.1,0.1-0.2,0.2-0.2,0.3
		c-0.1,0.2-0.1,0.5,0,0.8c0.1,0.1,0.1,0.2,0.2,0.3l12,12c0.2,0.2,0.5,0.3,0.7,0.3s0.5-0.1,0.7-0.3c0.4-0.4,0.4-1,0-1.4L20.9,28h35.6
		c0.6,0,1-0.4,1-1S57.1,26,56.5,26z"/>
</g>
</svg>
